<svg width="65" height="64" viewBox="0 0 65 64" fill="none" xmlns="http://www.w3.org/2000/svg">
<g clip-path="url(#clip0_14_46006)">
<g clip-path="url(#clip1_14_46006)">
<path d="M46.5898 47.2908L46.6069 52.7518C46.6069 53.1295 46.9229 53.434 47.309 53.434H47.3124C47.6984 53.434 48.0127 53.1262 48.011 52.7485L47.9922 46.5021L46.5916 47.2908H46.5898Z" fill="url(#paint0_linear_14_46006)"/>
<path d="M39.7441 51.1461L39.7595 56.6072C39.7595 56.9832 40.0755 57.2894 40.4616 57.2894C40.8493 57.2894 41.1636 56.9815 41.1619 56.6038L41.1448 50.3574L39.7441 51.1461Z" fill="url(#paint1_linear_14_46006)"/>
<path d="M32.8984 55.0014L32.9138 60.4624C32.9138 60.8384 33.2298 61.1446 33.6159 61.1446C34.0036 61.1446 34.3179 60.8368 34.3162 60.4591L34.2991 54.2126L32.8984 55.0014Z" fill="url(#paint2_linear_14_46006)"/>
<path d="M26.0508 58.8567L26.0679 64.3177C26.0679 64.6955 26.3839 65 26.7699 65H26.7733C27.1594 65 27.4737 64.6921 27.472 64.3144L27.4532 58.068L26.0525 58.8567H26.0508Z" fill="url(#paint3_linear_14_46006)"/>
<path d="M52.8274 16.5645L57.149 14.1301C57.4855 13.9404 57.6 13.5228 57.4052 13.1967C57.2088 12.8689 56.7783 12.7574 56.447 12.9471L52.8223 14.9887L52.8274 16.5661V16.5645Z" fill="url(#paint4_linear_14_46006)"/>
<path d="M52.8469 23.0888L57.1498 20.6661C57.4863 20.4764 57.6007 20.0588 57.406 19.7327C57.2095 19.4032 56.7791 19.2934 56.4477 19.4831L52.8418 21.5147L52.8469 23.0922V23.0888Z" fill="url(#paint5_linear_14_46006)"/>
<path d="M52.8665 29.613L57.1505 27.2003C57.487 27.0106 57.6014 26.593 57.4067 26.2668C57.2103 25.9374 56.7798 25.8276 56.4484 26.0173L52.8613 28.0373L52.8665 29.6147V29.613Z" fill="url(#paint6_linear_14_46006)"/>
<path d="M52.884 36.1373L57.1493 33.7346C57.4858 33.5449 57.6002 33.1273 57.4055 32.8011C57.2091 32.4717 56.7786 32.3619 56.4472 32.5516L52.8789 34.5616L52.884 36.139V36.1373Z" fill="url(#paint7_linear_14_46006)"/>
<path d="M52.8417 21.5114L52.828 16.5628L52.8229 14.9854L52.8161 12.3597C52.8127 10.8256 52.2439 9.66249 51.2173 9.07678C51.5418 9.2698 51.6511 9.68079 51.4598 10.0019C51.2634 10.3297 50.8329 10.4379 50.4998 10.2499C51.0857 10.5777 51.4103 11.3298 51.4137 12.3631L51.4888 38.4868C51.4957 40.9029 49.6799 43.9712 47.5242 45.1842L24.2148 58.311C23.2873 58.8351 22.4503 58.9399 21.8559 58.6055C21.8285 58.5905 21.8029 58.5739 21.7773 58.5573C21.8012 58.5722 21.8234 58.5889 21.8473 58.6022C22.1787 58.7935 22.2897 59.2112 22.095 59.5356C21.9635 59.7519 21.7295 59.8734 21.4886 59.8734C21.3725 59.8734 21.2563 59.8451 21.1504 59.7869C21.1521 59.7869 21.1538 59.7902 21.1555 59.7902C21.6013 60.0398 22.1001 60.1629 22.6314 60.1629C23.3471 60.1629 24.1243 59.9383 24.9152 59.494L26.0511 58.8551L27.4518 58.0664L32.8973 54.9998L34.298 54.211L39.7436 51.1444L41.1443 50.3557L46.5882 47.2891L47.9888 46.5004L48.2229 46.3689C50.8483 44.8913 52.8981 41.427 52.8895 38.4835L52.8827 36.1357L52.8776 34.5583L52.8639 29.6098L52.8588 28.0323L52.8451 23.0838L52.84 21.5064L52.8417 21.5114Z" fill="url(#paint8_linear_14_46006)"/>
<path d="M20.8591 30.3119C20.8591 30.3302 20.8574 30.3485 20.8574 30.3668L20.8694 34.1506L20.8591 30.3585C20.8591 30.3435 20.8591 30.3285 20.8591 30.3136V30.3119Z" fill="url(#paint9_linear_14_46006)"/>
<path d="M50.3359 10.1749C50.3906 10.1966 50.4453 10.2215 50.4982 10.2515C50.447 10.2215 50.3923 10.1982 50.3359 10.1749Z" fill="url(#paint10_linear_14_46006)"/>
<path d="M21.7446 58.5372C21.7446 58.5372 21.7292 58.5256 21.7207 58.5189C21.7292 58.5239 21.7361 58.5306 21.7446 58.5372Z" fill="url(#paint11_linear_14_46006)"/>
<path d="M14.5347 22.0755C14.7175 22.0272 14.9139 22.0505 15.0779 22.142L15.686 22.4865C16.4034 21.3849 17.3104 20.4814 18.238 19.9589L20.655 18.5978L20.6499 17.0221L17.5359 18.7759C16.2138 19.5197 14.9976 20.8075 14.1094 22.4033C14.1999 22.2435 14.3536 22.1237 14.5347 22.0755Z" fill="url(#paint12_linear_14_46006)"/>
<path d="M28.9019 13.9538L34.3474 10.8871L34.3423 9.3114L28.8984 12.378L28.9019 13.9538Z" fill="url(#paint13_linear_14_46006)"/>
<path d="M42.5937 6.41284C43.113 6.29137 43.5742 6.32798 43.9278 6.52765L48.2545 8.98029C47.9761 9.08346 47.6943 9.21491 47.4107 9.37298L24.1013 22.4998C22.9517 23.147 21.8807 24.207 21.0352 25.5215L21.6416 25.8659C21.9678 26.0523 22.084 26.455 21.9063 26.7811C22.663 25.4233 23.717 24.2952 24.8016 23.6845L32.3312 19.4431L48.1076 10.5577C48.9617 10.0818 49.756 9.94704 50.3316 10.175C50.388 10.1966 50.4427 10.2216 50.4939 10.2499C50.827 10.4379 51.2575 10.3281 51.4539 10.002C51.6469 9.67915 51.5359 9.26815 51.2113 9.0768C51.2079 9.07514 51.2045 9.07181 51.2011 9.06848L44.635 5.34626C44.635 5.34626 44.635 5.34626 44.6315 5.34626C44.0354 5.01014 43.3385 4.90365 42.5886 5.02013L42.592 6.4145L42.5937 6.41284Z" fill="url(#paint14_linear_14_46006)"/>
<path d="M35.7493 10.0985L41.1948 7.03184L41.1897 5.47107C41.0753 5.52598 40.9608 5.58422 40.8464 5.64911L35.7441 8.52273L35.7493 10.0985Z" fill="url(#paint15_linear_14_46006)"/>
<path d="M22.0562 17.8091L27.5017 14.7425L27.4966 13.1667L22.0527 16.2334L22.0562 17.8091Z" fill="url(#paint16_linear_14_46006)"/>
<path d="M22.0949 59.5373C22.2896 59.2129 22.1786 58.7952 21.8472 58.6039C21.8233 58.5906 21.8011 58.5739 21.7772 58.559C21.7669 58.5523 21.7549 58.5456 21.743 58.5373C21.7344 58.5323 21.7276 58.5257 21.7191 58.519C21.2169 58.1513 20.9419 57.4358 20.9419 56.4824L20.8975 42.9712L20.8684 34.149L20.8565 30.3652C20.8565 30.3469 20.8582 30.3286 20.8582 30.3103C20.8701 29.2288 21.2408 27.9791 21.9087 26.7811C21.9087 26.7811 21.9087 26.7794 21.9087 26.7778C22.088 26.4533 21.9702 26.049 21.6439 25.8626L21.0375 25.5182L15.6842 22.4832L15.0761 22.1387C14.9138 22.0455 14.7174 22.0239 14.5329 22.0722C14.3518 22.1221 14.1981 22.2402 14.1076 22.4C14.1076 22.4 14.1076 22.4016 14.1058 22.4033C13.3167 23.8193 12.8828 25.3235 12.8828 26.638L12.8965 30.9626L14.2972 30.1739L14.2852 26.6363C14.2852 25.7328 14.5431 24.7062 15.0163 23.6862L20.3662 26.7195C19.7735 27.9542 19.4507 29.2271 19.4507 30.3636L19.5378 56.4807C19.5378 56.7769 19.5583 57.0581 19.601 57.326L15.2776 54.875C14.6935 54.5389 14.374 53.7868 14.374 52.7535L14.3689 51.3175L12.9682 52.1062V52.7551C12.9699 54.2876 13.537 55.459 14.567 56.0531L21.1349 59.777C21.1349 59.777 21.1451 59.7819 21.1503 59.7836C21.2579 59.8402 21.374 59.8701 21.4885 59.8701C21.7276 59.8701 21.9633 59.7487 22.0949 59.5324V59.5373Z" fill="url(#paint17_linear_14_46006)"/>
<path d="M14.3221 36.6997L14.305 31.7545L12.9043 32.5432L12.9214 37.4884L14.3221 36.6997Z" fill="url(#paint18_linear_14_46006)"/>
<path d="M14.3633 49.7467L14.3479 44.7998L12.9473 45.5885L12.9626 50.5354L14.3633 49.7467Z" fill="url(#paint19_linear_14_46006)"/>
<path d="M14.3435 43.2241L14.3265 38.2772L12.9258 39.0659L12.9429 44.0111L14.3435 43.2241Z" fill="url(#paint20_linear_14_46006)"/>
<path d="M41.1948 7.03175L41.2017 9.28804C41.2017 9.66409 41.5177 9.97026 41.9037 9.97026C42.2915 9.97026 42.6058 9.66243 42.604 9.28472L42.5955 6.41276L42.5921 5.01839L42.5801 0.680505C42.5801 0.304455 42.2641 -0.00170898 41.8781 -0.00170898C41.4903 -0.00170898 41.176 0.306119 41.1777 0.683833L41.1914 5.47098L41.1965 7.03175H41.1948Z" fill="url(#paint21_linear_14_46006)"/>
<path d="M34.3469 10.8871L34.3538 13.1434C34.3538 13.5195 34.6698 13.8257 35.0558 13.8257C35.4436 13.8257 35.7579 13.5178 35.7561 13.1401L35.7476 10.0984L35.7425 8.52269L35.7305 4.53756C35.7305 4.16151 35.4145 3.85535 35.0285 3.85535C34.6407 3.85535 34.3264 4.16317 34.3281 4.54089L34.3418 9.31139L34.3469 10.8871Z" fill="url(#paint22_linear_14_46006)"/>
<path d="M27.5012 14.7425L27.5081 16.9988C27.5081 17.3765 27.8241 17.681 28.2101 17.681H28.2135C28.5996 17.681 28.9139 17.3732 28.9122 16.9955L28.9036 13.9538L28.8985 12.378L28.8865 8.39291C28.8865 8.01519 28.5705 7.71069 28.1845 7.71069H28.1811C27.795 7.71069 27.4807 8.01852 27.4824 8.39623L27.4961 13.1667L27.5012 14.7425Z" fill="url(#paint23_linear_14_46006)"/>
<path d="M20.6555 18.5978L20.6623 20.8541C20.6623 21.2302 20.9784 21.5363 21.3644 21.5363C21.7521 21.5363 22.0664 21.2285 22.0647 20.8508L22.0562 17.8091L22.0511 16.2334L22.0391 12.2483C22.0391 11.8722 21.7231 11.566 21.3371 11.566C20.9493 11.566 20.635 11.8739 20.6367 12.2516L20.6504 17.0221L20.6555 18.5978Z" fill="url(#paint24_linear_14_46006)"/>
<path d="M14.3053 31.7546L16.5839 30.4717C16.9204 30.282 17.0349 29.8643 16.8401 29.5382C16.6454 29.2104 16.2133 29.0989 15.8819 29.2886L14.3001 30.1788L12.8994 30.9675L8.85113 33.2471C8.51462 33.4368 8.40018 33.8545 8.59491 34.1806C8.72472 34.4002 8.96045 34.5217 9.2013 34.5217C9.32087 34.5217 9.44215 34.4917 9.55147 34.4302L12.9029 32.5433L14.3035 31.7546H14.3053Z" fill="url(#paint25_linear_14_46006)"/>
<path d="M14.3258 38.2772L16.5822 37.006C16.9187 36.8163 17.0332 36.3986 16.8384 36.0725C16.6437 35.743 16.2115 35.6332 15.8802 35.8229L14.3206 36.7015L12.9199 37.4902L8.85113 39.7814C8.51462 39.9694 8.40018 40.3888 8.59491 40.7149C8.72472 40.9345 8.96045 41.056 9.2013 41.056C9.32087 41.056 9.44215 41.026 9.55147 40.9645L12.9251 39.0643L14.3258 38.2756V38.2772Z" fill="url(#paint26_linear_14_46006)"/>
<path d="M14.348 44.7998L16.5822 43.5419C16.9187 43.3522 17.0332 42.9345 16.8384 42.6084C16.6437 42.2789 16.2115 42.1691 15.8802 42.3588L14.3428 43.2257L12.9421 44.0144L8.85113 46.319C8.51462 46.5087 8.40018 46.9263 8.59491 47.2524C8.72472 47.4721 8.96045 47.5935 9.2013 47.5935C9.32087 47.5935 9.44215 47.5636 9.55147 47.502L12.9473 45.5902L14.348 44.8015V44.7998Z" fill="url(#paint27_linear_14_46006)"/>
<path d="M14.3719 51.3225L16.5839 50.0762C16.9204 49.8865 17.0349 49.4688 16.8401 49.1427C16.6454 48.8132 16.2133 48.7034 15.8819 48.8931L14.365 49.7467L12.9644 50.5354L8.85113 52.8516C8.51462 53.0413 8.40018 53.4589 8.59491 53.7851C8.72472 54.0047 8.96045 54.1262 9.2013 54.1262C9.32087 54.1262 9.44215 54.0962 9.55147 54.0347L12.9678 52.1112L14.3685 51.3225H14.3719Z" fill="url(#paint28_linear_14_46006)"/>
<path d="M33.5696 27.0606C33.3578 26.994 33.0982 27.0473 32.7924 27.2187L32.5738 27.3418C32.268 27.5132 32.0084 27.7528 31.7983 28.059C31.5882 28.3685 31.4225 28.7029 31.3063 29.064L26.9215 43.2357L25.76 46.9896C25.6882 47.2292 25.6523 47.4139 25.6523 47.5453C25.6523 47.8531 25.748 48.0628 25.9291 48.176C26.1101 48.2858 26.3493 48.2575 26.6431 48.0911C26.8463 47.9763 27.0308 47.8132 27.1999 47.5903C27.3656 47.3739 27.4937 47.1377 27.5826 46.8714L28.838 42.7515L28.9935 42.2424L34.4886 39.1474L36.4444 38.0459L37.8776 41.0743C37.9681 41.239 38.0945 41.3338 38.2636 41.3605C38.4293 41.3938 38.6189 41.3472 38.8222 41.2323C39.116 41.066 39.3534 40.828 39.5345 40.5135C39.7155 40.1957 39.8078 39.8812 39.8078 39.5717C39.8078 39.4403 39.7685 39.2972 39.6968 39.1391L37.3685 34.332L34.065 27.5082C33.9471 27.2786 33.7814 27.1305 33.5696 27.0589V27.0606ZM29.7587 39.7731L32.6916 30.1289L35.6706 36.4435L29.7587 39.7731Z" fill="url(#paint29_linear_14_46006)"/>
<path d="M44.2903 20.6928C44.0716 20.5713 43.8069 20.5963 43.5011 20.7693L43.3696 20.8442C43.0638 21.0156 42.8008 21.2868 42.5821 21.6562C42.3635 22.0239 42.2559 22.3817 42.2559 22.7244V22.8209C42.2559 23.167 42.3669 23.3983 42.5872 23.5231C42.8059 23.6446 43.0706 23.6196 43.3764 23.4466L43.5079 23.3717C43.8137 23.2003 44.0767 22.9291 44.2954 22.5597C44.514 22.187 44.6216 21.8342 44.6216 21.4881V21.3916C44.6216 21.0488 44.5106 20.8159 44.2903 20.6928Z" fill="url(#paint30_linear_14_46006)"/>
<path d="M44.1554 25.761C43.9624 25.6579 43.7216 25.6878 43.4312 25.8526C43.1528 26.009 42.9187 26.2519 42.7308 26.5764C42.5429 26.9058 42.4456 27.2286 42.4473 27.5365L42.478 38.0725C42.478 38.3803 42.5771 38.5883 42.7667 38.6965C42.9563 38.8013 43.1903 38.7763 43.4688 38.6183C43.7438 38.4635 43.9812 38.2239 44.1811 37.8995C44.3758 37.5733 44.4732 37.2555 44.4732 36.9477L44.4424 26.4116C44.4424 26.0855 44.3468 25.8692 44.1571 25.7594L44.1554 25.761Z" fill="url(#paint31_linear_14_46006)"/>
</g>
</g>
<defs>
<linearGradient id="paint0_linear_14_46006" x1="46.5845" y1="49.9677" x2="49.9295" y2="49.9677" gradientUnits="userSpaceOnUse">
<stop stop-color="#0088AC"/>
<stop offset="0.135" stop-color="#0054A6"/>
<stop offset="0.335" stop-color="#662D91"/>
</linearGradient>
<linearGradient id="paint1_linear_14_46006" x1="39.7389" y1="53.8231" x2="43.0757" y2="53.8231" gradientUnits="userSpaceOnUse">
<stop stop-color="#0088AC"/>
<stop offset="0.135" stop-color="#0054A6"/>
<stop offset="0.335" stop-color="#662D91"/>
</linearGradient>
<linearGradient id="paint2_linear_14_46006" x1="32.8932" y1="57.6783" x2="36.23" y2="57.6783" gradientUnits="userSpaceOnUse">
<stop stop-color="#0088AC"/>
<stop offset="0.135" stop-color="#0054A6"/>
<stop offset="0.335" stop-color="#662D91"/>
</linearGradient>
<linearGradient id="paint3_linear_14_46006" x1="26.0455" y1="61.5337" x2="29.3904" y2="61.5337" gradientUnits="userSpaceOnUse">
<stop stop-color="#0088AC"/>
<stop offset="0.135" stop-color="#0054A6"/>
<stop offset="0.335" stop-color="#662D91"/>
</linearGradient>
<linearGradient id="paint4_linear_14_46006" x1="52.8048" y1="14.7102" x2="63.8147" y2="14.7102" gradientUnits="userSpaceOnUse">
<stop stop-color="#0088AC"/>
<stop offset="0.135" stop-color="#0054A6"/>
<stop offset="0.335" stop-color="#662D91"/>
</linearGradient>
<linearGradient id="paint5_linear_14_46006" x1="52.8244" y1="21.241" x2="63.7901" y2="21.241" gradientUnits="userSpaceOnUse">
<stop stop-color="#0088AC"/>
<stop offset="0.135" stop-color="#0054A6"/>
<stop offset="0.335" stop-color="#662D91"/>
</linearGradient>
<linearGradient id="paint6_linear_14_46006" x1="52.844" y1="27.7694" x2="63.7655" y2="27.7694" gradientUnits="userSpaceOnUse">
<stop stop-color="#0088AC"/>
<stop offset="0.135" stop-color="#0054A6"/>
<stop offset="0.335" stop-color="#662D91"/>
</linearGradient>
<linearGradient id="paint7_linear_14_46006" x1="52.8617" y1="34.2987" x2="63.7389" y2="34.2987" gradientUnits="userSpaceOnUse">
<stop stop-color="#0088AC"/>
<stop offset="0.135" stop-color="#0054A6"/>
<stop offset="0.335" stop-color="#662D91"/>
</linearGradient>
<linearGradient id="paint8_linear_14_46006" x1="21.0321" y1="34.6176" x2="95.7337" y2="34.6176" gradientUnits="userSpaceOnUse">
<stop stop-color="#0088AC"/>
<stop offset="0.135" stop-color="#0054A6"/>
<stop offset="0.335" stop-color="#662D91"/>
</linearGradient>
<linearGradient id="paint9_linear_14_46006" x1="20.8574" y1="32.2311" x2="20.8855" y2="32.2311" gradientUnits="userSpaceOnUse">
<stop stop-color="#0088AC"/>
<stop offset="0.135" stop-color="#0054A6"/>
<stop offset="0.335" stop-color="#662D91"/>
</linearGradient>
<linearGradient id="paint10_linear_14_46006" x1="50.3353" y1="10.2132" x2="50.7173" y2="10.2132" gradientUnits="userSpaceOnUse">
<stop stop-color="#0088AC"/>
<stop offset="0.135" stop-color="#0054A6"/>
<stop offset="0.335" stop-color="#662D91"/>
</linearGradient>
<linearGradient id="paint11_linear_14_46006" x1="21.7206" y1="58.5281" x2="21.7769" y2="58.5281" gradientUnits="userSpaceOnUse">
<stop stop-color="#0088AC"/>
<stop offset="0.135" stop-color="#0054A6"/>
<stop offset="0.335" stop-color="#662D91"/>
</linearGradient>
<linearGradient id="paint12_linear_14_46006" x1="14.085" y1="19.754" x2="29.4908" y2="19.754" gradientUnits="userSpaceOnUse">
<stop stop-color="#0088AC"/>
<stop offset="0.135" stop-color="#0054A6"/>
<stop offset="0.335" stop-color="#662D91"/>
</linearGradient>
<linearGradient id="paint13_linear_14_46006" x1="28.8781" y1="11.6324" x2="41.703" y2="11.6324" gradientUnits="userSpaceOnUse">
<stop stop-color="#0088AC"/>
<stop offset="0.135" stop-color="#0054A6"/>
<stop offset="0.335" stop-color="#662D91"/>
</linearGradient>
<linearGradient id="paint14_linear_14_46006" x1="20.9215" y1="15.8769" x2="92.7389" y2="15.8769" gradientUnits="userSpaceOnUse">
<stop stop-color="#0088AC"/>
<stop offset="0.135" stop-color="#0054A6"/>
<stop offset="0.335" stop-color="#662D91"/>
</linearGradient>
<linearGradient id="paint15_linear_14_46006" x1="35.7238" y1="7.78456" x2="48.5527" y2="7.78456" gradientUnits="userSpaceOnUse">
<stop stop-color="#0088AC"/>
<stop offset="0.135" stop-color="#0054A6"/>
<stop offset="0.335" stop-color="#662D91"/>
</linearGradient>
<linearGradient id="paint16_linear_14_46006" x1="22.0324" y1="15.4877" x2="34.8572" y2="15.4877" gradientUnits="userSpaceOnUse">
<stop stop-color="#0088AC"/>
<stop offset="0.135" stop-color="#0054A6"/>
<stop offset="0.335" stop-color="#662D91"/>
</linearGradient>
<linearGradient id="paint17_linear_14_46006" x1="12.8481" y1="40.957" x2="34.7556" y2="40.957" gradientUnits="userSpaceOnUse">
<stop stop-color="#0088AC"/>
<stop offset="0.135" stop-color="#0054A6"/>
<stop offset="0.335" stop-color="#662D91"/>
</linearGradient>
<linearGradient id="paint18_linear_14_46006" x1="12.899" y1="34.6212" x2="16.2359" y2="34.6212" gradientUnits="userSpaceOnUse">
<stop stop-color="#0088AC"/>
<stop offset="0.135" stop-color="#0054A6"/>
<stop offset="0.335" stop-color="#662D91"/>
</linearGradient>
<linearGradient id="paint19_linear_14_46006" x1="12.942" y1="47.6673" x2="16.2748" y2="47.6673" gradientUnits="userSpaceOnUse">
<stop stop-color="#0088AC"/>
<stop offset="0.135" stop-color="#0054A6"/>
<stop offset="0.335" stop-color="#662D91"/>
</linearGradient>
<linearGradient id="paint20_linear_14_46006" x1="12.9205" y1="41.1439" x2="16.2574" y2="41.1439" gradientUnits="userSpaceOnUse">
<stop stop-color="#0088AC"/>
<stop offset="0.135" stop-color="#0054A6"/>
<stop offset="0.335" stop-color="#662D91"/>
</linearGradient>
<linearGradient id="paint21_linear_14_46006" x1="41.1724" y1="4.98383" x2="44.5294" y2="4.98383" gradientUnits="userSpaceOnUse">
<stop stop-color="#0088AC"/>
<stop offset="0.135" stop-color="#0054A6"/>
<stop offset="0.335" stop-color="#662D91"/>
</linearGradient>
<linearGradient id="paint22_linear_14_46006" x1="34.3228" y1="8.84005" x2="37.6838" y2="8.84005" gradientUnits="userSpaceOnUse">
<stop stop-color="#0088AC"/>
<stop offset="0.135" stop-color="#0054A6"/>
<stop offset="0.335" stop-color="#662D91"/>
</linearGradient>
<linearGradient id="paint23_linear_14_46006" x1="27.4771" y1="12.6954" x2="30.8421" y2="12.6954" gradientUnits="userSpaceOnUse">
<stop stop-color="#0088AC"/>
<stop offset="0.135" stop-color="#0054A6"/>
<stop offset="0.335" stop-color="#662D91"/>
</linearGradient>
<linearGradient id="paint24_linear_14_46006" x1="20.6314" y1="16.5507" x2="23.9924" y2="16.5507" gradientUnits="userSpaceOnUse">
<stop stop-color="#0088AC"/>
<stop offset="0.135" stop-color="#0054A6"/>
<stop offset="0.335" stop-color="#662D91"/>
</linearGradient>
<linearGradient id="paint25_linear_14_46006" x1="8.46857" y1="31.8587" x2="28.3214" y2="31.8587" gradientUnits="userSpaceOnUse">
<stop stop-color="#0088AC"/>
<stop offset="0.135" stop-color="#0054A6"/>
<stop offset="0.335" stop-color="#662D91"/>
</linearGradient>
<linearGradient id="paint26_linear_14_46006" x1="8.46858" y1="38.3928" x2="28.3174" y2="38.3928" gradientUnits="userSpaceOnUse">
<stop stop-color="#0088AC"/>
<stop offset="0.135" stop-color="#0054A6"/>
<stop offset="0.335" stop-color="#662D91"/>
</linearGradient>
<linearGradient id="paint27_linear_14_46006" x1="8.46858" y1="44.9295" x2="28.3174" y2="44.9295" gradientUnits="userSpaceOnUse">
<stop stop-color="#0088AC"/>
<stop offset="0.135" stop-color="#0054A6"/>
<stop offset="0.335" stop-color="#662D91"/>
</linearGradient>
<linearGradient id="paint28_linear_14_46006" x1="8.46857" y1="51.463" x2="28.3214" y2="51.463" gradientUnits="userSpaceOnUse">
<stop stop-color="#0088AC"/>
<stop offset="0.135" stop-color="#0054A6"/>
<stop offset="0.335" stop-color="#662D91"/>
</linearGradient>
<linearGradient id="paint29_linear_14_46006" x1="25.5996" y1="37.6362" x2="58.916" y2="37.6362" gradientUnits="userSpaceOnUse">
<stop stop-color="#0088AC"/>
<stop offset="0.135" stop-color="#0054A6"/>
<stop offset="0.335" stop-color="#662D91"/>
</linearGradient>
<linearGradient id="paint30_linear_14_46006" x1="42.247" y1="22.1078" x2="47.8152" y2="22.1078" gradientUnits="userSpaceOnUse">
<stop stop-color="#0088AC"/>
<stop offset="0.135" stop-color="#0054A6"/>
<stop offset="0.335" stop-color="#662D91"/>
</linearGradient>
<linearGradient id="paint31_linear_14_46006" x1="42.4397" y1="32.2299" x2="47.2079" y2="32.2299" gradientUnits="userSpaceOnUse">
<stop stop-color="#0088AC"/>
<stop offset="0.135" stop-color="#0054A6"/>
<stop offset="0.335" stop-color="#662D91"/>
</linearGradient>
<clipPath id="clip0_14_46006">
<rect width="64" height="64" fill="white" transform="translate(0.5)"/>
</clipPath>
<clipPath id="clip1_14_46006">
<rect width="49" height="65" fill="white" transform="translate(8.5)"/>
</clipPath>
</defs>
</svg>
