<svg width="64" height="64" viewBox="0 0 64 64" fill="none" xmlns="http://www.w3.org/2000/svg">
<g clip-path="url(#clip0_20_84996)">
<path d="M64 23.1451C63.9977 21.337 62.8051 19.6577 60.6446 18.4149C56.3755 15.962 49.4531 15.9631 45.2145 18.4149C45.1027 18.4792 44.9945 18.5459 44.8875 18.6126C41.224 17.447 37.1995 16.7999 33.1349 16.6688V15.7443C33.1373 15.6858 33.1384 15.6273 33.1384 15.5688C33.1361 13.7607 31.9436 12.0813 29.7831 10.8385C25.5139 8.3856 18.5915 8.38677 14.3529 10.8385C12.2301 12.0661 11.0587 13.7232 11.0469 15.5079C11.0469 15.5161 11.0446 15.5243 11.0446 15.5325V21.0784C11.0446 21.3675 11.0752 21.6518 11.1351 21.9327C7.16822 24.4991 4.76313 27.7022 4.20332 31.1486C3.89401 31.2914 3.59411 31.4459 3.30832 31.6109C1.18549 32.8397 0.014113 34.4968 0.00235216 36.2815C0.00235216 36.2896 0 36.2967 0 36.306V41.852C0 43.6647 1.19372 45.3511 3.36006 46.5998C5.43114 47.7923 8.17494 48.4476 11.0869 48.4476C11.1481 48.4476 11.2081 48.4476 11.2175 48.4429C11.5162 48.4406 11.8126 48.4312 12.1066 48.4149C12.1771 48.4558 12.2454 48.4979 12.3159 48.5389C17.6836 51.6331 24.7236 53.1791 31.7577 53.1791C32.8444 53.1791 33.9311 53.1416 35.0119 53.0679C35.059 53.096 35.106 53.124 35.1543 53.1521C37.2253 54.3446 39.9691 55 42.8811 55C42.9423 55 43.0022 55 43.0117 54.9953C45.8625 54.9778 48.551 54.3236 50.5844 53.151C52.7132 51.9152 53.8845 50.2522 53.8845 48.4675V46.7074C57.3798 43.9643 59.2722 40.6407 59.2804 37.1334L59.2863 34.0895C59.7838 33.8847 60.2565 33.6565 60.6976 33.4026C62.8263 32.1668 63.9977 30.5038 63.9977 28.7191V23.3218C64 23.2633 64.0012 23.2048 64.0012 23.1463L64 23.1451ZM58.3207 37.103V37.1311C58.3148 40.1352 56.7636 43.014 53.8857 45.4705V43.0702C53.8881 43.0117 53.8892 42.9532 53.8892 42.8947C53.8892 42.746 53.8798 42.5986 53.8634 42.4511C55.357 41.282 56.5589 40.0076 57.4481 38.6583C57.4481 38.6583 57.4481 38.6583 57.4481 38.6571C57.528 38.5366 57.6045 38.416 57.6786 38.2943C57.6821 38.2885 57.6856 38.2826 57.6891 38.2756C57.7562 38.1644 57.822 38.0532 57.8856 37.9421C57.8926 37.9292 57.9008 37.9152 57.9079 37.9023C57.9714 37.7888 58.0326 37.6752 58.0925 37.5606C58.1031 37.5395 58.1137 37.5184 58.1255 37.4974C58.1737 37.4026 58.2219 37.3066 58.2678 37.2106C58.2795 37.1861 58.2925 37.1603 58.3042 37.1357C58.3089 37.1252 58.3148 37.1147 58.3195 37.1042L58.3207 37.103ZM22.0574 9.91398C24.6824 9.91398 27.3121 10.4898 29.3174 11.6425C31.1791 12.7121 32.2046 14.1071 32.207 15.5711C32.207 15.6308 32.2023 15.6905 32.1999 15.749C32.1964 15.8098 32.1917 15.8695 32.1846 15.9304C32.1823 15.9549 32.1788 15.9807 32.1752 16.0053C32.1658 16.0708 32.1552 16.1363 32.1423 16.2019C32.1388 16.2206 32.1341 16.2381 32.1306 16.2569C32.1153 16.3283 32.0964 16.3996 32.0764 16.4699C32.0729 16.4816 32.0694 16.4933 32.0659 16.505C32.0423 16.5822 32.0165 16.6583 31.9882 16.7343C31.9859 16.739 31.9835 16.7449 31.9824 16.7496C31.753 17.3382 31.3543 17.9035 30.7992 18.4242C30.7992 18.4242 30.7969 18.4254 30.7969 18.4266C30.7192 18.4991 30.6381 18.5717 30.5546 18.6431C30.5405 18.6548 30.5264 18.6665 30.5123 18.677C30.4405 18.7367 30.3664 18.7975 30.29 18.8561C30.25 18.8865 30.2088 18.9157 30.1677 18.9462C30.1136 18.986 30.0618 19.0257 30.0054 19.0644C29.8054 19.2036 29.5926 19.3394 29.3668 19.4704C29.0363 19.6612 28.6882 19.8356 28.3259 19.9947C24.3214 21.7572 18.5503 21.584 14.8716 19.4704C14.1718 19.069 13.5908 18.622 13.1368 18.1434C12.3818 17.3452 11.9807 16.457 11.9784 15.5418C11.976 14.0895 12.9863 12.7051 14.821 11.6437C16.8121 10.4921 19.4336 9.91632 22.0574 9.91632V9.91398ZM52.919 17.4892C55.544 17.4892 58.1737 18.0649 60.1789 19.2177C62.0407 20.2873 63.0662 21.6823 63.0686 23.1463C63.0686 23.206 63.0638 23.2657 63.0615 23.3242C63.058 23.385 63.0533 23.4447 63.0462 23.5056C63.0438 23.5301 63.0403 23.5559 63.0368 23.5805C63.0274 23.646 63.0168 23.7115 63.0039 23.7771C63.0003 23.7958 62.9956 23.8133 62.9921 23.8321C62.9768 23.9035 62.958 23.9748 62.938 24.0451C62.9345 24.0568 62.9309 24.0685 62.9274 24.0802C62.9039 24.1574 62.878 24.2335 62.8498 24.3095C62.8474 24.3142 62.8451 24.3201 62.8439 24.3247C62.6146 24.9134 62.2159 25.4786 61.6608 25.9994C61.6608 25.9994 61.6584 26.0006 61.6584 26.0018C61.5808 26.0743 61.4997 26.1469 61.4162 26.2183C61.402 26.23 61.3868 26.2417 61.3726 26.2534C61.3009 26.313 61.228 26.3727 61.1515 26.4312C61.1115 26.4617 61.0704 26.4909 61.0292 26.5214C60.9763 26.5611 60.9234 26.6009 60.8681 26.6396C60.6682 26.7788 60.4553 26.9146 60.2295 27.0456C59.8967 27.2387 59.545 27.4131 59.1804 27.5734C55.1759 29.3312 49.4107 29.1568 45.7355 27.0445C45.0357 26.6431 44.4547 26.196 44.0007 25.7174C43.2457 24.9193 42.8447 24.031 42.8423 23.1159C42.8399 21.6635 43.8502 20.2791 45.6849 19.2177C47.676 18.0661 50.2975 17.4903 52.9213 17.4903L52.919 17.4892ZM11.0869 47.5208C8.33724 47.5208 5.7581 46.9087 3.82697 45.797C1.95935 44.7215 0.931457 43.3195 0.931457 41.8508V38.9754C0.937337 38.9836 0.94557 38.9918 0.95145 39.0012C1.01143 39.0807 1.07376 39.1603 1.13845 39.2387C1.15021 39.2528 1.16197 39.268 1.17491 39.282C1.24429 39.364 1.31721 39.4459 1.39248 39.5255C1.40071 39.5348 1.41012 39.5442 1.41953 39.5535C1.4995 39.6378 1.58301 39.7221 1.67004 39.804C1.67474 39.8087 1.67944 39.8122 1.68297 39.8168C2.15105 40.2592 2.71087 40.6723 3.35889 41.0445C3.79639 41.2961 4.2633 41.5208 4.75137 41.7197C6.64133 42.4944 8.86177 42.883 11.0822 42.883C13.0016 42.883 14.9198 42.5927 16.6204 42.0146C16.7768 41.962 16.9309 41.9058 17.0838 41.8473C17.6871 41.6167 18.2598 41.3487 18.7903 41.0421C18.8032 41.0339 18.8161 41.0269 18.8291 41.0187C18.929 40.9602 19.0266 40.9005 19.1219 40.8408C19.1396 40.8303 19.1572 40.8198 19.1737 40.8081C19.2807 40.7402 19.3842 40.67 19.4853 40.5998C19.4971 40.5916 19.5088 40.5834 19.5206 40.5752C19.6276 40.5003 19.7299 40.4242 19.8311 40.347C19.8346 40.3435 19.8393 40.3411 19.8428 40.3376C20.3721 39.928 20.8131 39.4857 21.1601 39.0176V41.9152C21.1601 43.3569 20.1522 44.7355 18.3234 45.7981C16.4299 46.89 13.9048 47.5009 11.2128 47.5161C11.1951 47.5161 11.1057 47.5196 11.0881 47.5208H11.0869ZM11.9772 21.0784V18.203C11.9831 18.2112 11.9913 18.2194 11.9972 18.2288C12.0572 18.3084 12.1195 18.3879 12.1842 18.4664C12.196 18.4804 12.2077 18.4956 12.2207 18.5097C12.2901 18.5916 12.3618 18.6735 12.4382 18.7531C12.4476 18.7624 12.4559 18.7718 12.4653 18.7812C12.5453 18.8654 12.6288 18.9497 12.7158 19.0316C12.7205 19.0363 12.7252 19.0398 12.7287 19.0445C13.1968 19.4868 13.7566 19.8999 14.4046 20.2721C14.8421 20.5237 15.3091 20.7484 15.7971 20.9473C17.6871 21.7221 19.9075 22.1106 22.128 22.1106C24.0473 22.1106 25.9655 21.8215 27.6661 21.2422C27.8226 21.1896 27.9766 21.1334 28.1295 21.0749C28.7328 20.8444 29.3056 20.5764 29.836 20.2697C29.8489 20.2616 29.8619 20.2545 29.8748 20.2463C29.9748 20.1878 30.0724 20.1293 30.1677 20.0685C30.1853 20.0579 30.2029 20.0462 30.2206 20.0357C30.3276 19.9678 30.4299 19.8976 30.5311 19.8274C30.5428 19.8192 30.5546 19.811 30.5664 19.8028C30.6734 19.7279 30.7757 19.6518 30.8757 19.5746C30.8792 19.5711 30.8839 19.5688 30.8874 19.5652C31.4167 19.1556 31.8577 18.7133 32.2046 18.2452V21.1428C32.2046 22.5846 31.1967 23.9631 29.3679 25.0257C27.4744 26.1176 24.9494 26.7285 22.2573 26.7437C22.2397 26.7437 22.1503 26.7472 22.1327 26.7484C19.383 26.7484 16.8039 26.1363 14.8727 25.0246C13.0051 23.9491 11.9772 22.5471 11.9772 21.0784ZM58.1125 34.7613C58.089 34.8654 58.0643 34.9696 58.0373 35.0737C58.0302 35.103 58.0208 35.1311 58.0126 35.1603C57.9879 35.2504 57.9632 35.3394 57.9361 35.4283C57.9232 35.4716 57.9079 35.5149 57.8938 35.5582C57.8703 35.6331 57.8467 35.7068 57.8209 35.7817C57.8009 35.8403 57.7785 35.8976 57.7574 35.9549C57.735 36.0146 57.7138 36.0743 57.6915 36.1328C57.6633 36.2054 57.6327 36.2779 57.6021 36.3505C57.5833 36.395 57.5657 36.4383 57.5468 36.4827C57.508 36.5705 57.4669 36.6595 57.4257 36.7472C57.4128 36.7753 57.401 36.8022 57.3869 36.8303C57.3363 36.9345 57.2834 37.0386 57.2293 37.1428C57.2234 37.1533 57.2187 37.165 57.2128 37.1755C56.4166 38.6852 55.2064 40.1164 53.6129 41.4225C53.1448 40.1867 52.091 39.0632 50.5315 38.1668C50.3598 38.0685 50.1822 37.9748 50.0023 37.8836C50.8208 37.0363 51.4324 36.1398 51.8205 35.2165C52.2074 35.2399 52.5979 35.2528 52.9919 35.2528C53.053 35.2528 53.113 35.2528 53.1224 35.2481C54.9077 35.2376 56.6295 34.9766 58.1655 34.4956C58.1514 34.5705 58.1372 34.6442 58.1208 34.7191C58.1172 34.7343 58.1137 34.7484 58.1102 34.7636L58.1125 34.7613ZM19.3971 46.2171C20.8837 45.2048 21.794 43.9585 22.0292 42.6161C24.9929 43.495 28.3071 43.9608 31.7542 43.9608C31.7683 43.9608 31.7813 43.9608 31.7954 43.9608V47.9538C27.5368 47.9561 23.2735 47.3768 19.3983 46.2159L19.3971 46.2171ZM52.9566 42.8958C52.9566 42.9555 52.9519 43.0152 52.9495 43.0737C52.946 43.1346 52.9413 43.1943 52.9343 43.2551C52.9319 43.2797 52.9284 43.3054 52.9248 43.33C52.9154 43.3956 52.9049 43.4611 52.8919 43.5266C52.8884 43.5453 52.8837 43.5641 52.8802 43.5816C52.8649 43.653 52.8461 43.7232 52.8261 43.7946C52.8225 43.8063 52.819 43.818 52.8155 43.8297C52.7919 43.9058 52.7661 43.983 52.7379 44.0591C52.7355 44.0638 52.7331 44.0696 52.732 44.0743C52.5026 44.663 52.1039 45.2282 51.5488 45.749C51.5488 45.749 51.5465 45.7513 51.5453 45.7525C51.4677 45.825 51.3865 45.8976 51.303 45.9678C51.2889 45.9795 51.2748 45.9912 51.2607 46.0018C51.1889 46.0614 51.1149 46.1211 51.0384 46.1808C50.9984 46.2112 50.9561 46.2405 50.9161 46.2709C50.8632 46.3107 50.8102 46.3505 50.755 46.3891C50.555 46.5284 50.3422 46.6641 50.1164 46.7952C49.7859 46.986 49.4378 47.1603 49.0755 47.3195C45.071 49.0819 39.2999 48.9087 35.6212 46.7952C34.9214 46.3938 34.3404 45.9468 33.8864 45.4681C33.1314 44.67 32.7304 43.7817 32.728 42.8666C32.7256 41.4143 33.7359 40.0298 35.5706 38.9684C37.5617 37.8168 40.1832 37.2411 42.807 37.2411C45.4309 37.2411 48.0617 37.8169 50.067 38.9696C51.9287 40.0392 52.9542 41.4342 52.9566 42.8982V42.8958ZM45.2662 33.4026C46.8104 34.2908 48.7286 34.8818 50.8102 35.1252C50.4245 35.9304 49.8412 36.7145 49.072 37.4611C44.8075 35.7408 38.886 35.9748 35.1025 38.1644C32.9797 39.392 31.8083 41.0491 31.7965 42.8338C31.7965 42.842 31.7942 42.849 31.7942 42.8572V43.0047C31.7801 43.0047 31.7671 43.0047 31.753 43.0047C28.3142 43.0047 25.0153 42.5307 22.0903 41.6378V36.5167C22.0927 36.4582 22.0939 36.3996 22.0939 36.3411C22.0915 34.5331 20.899 32.8537 18.7385 31.6109C17.9047 31.1311 16.9673 30.7472 15.97 30.4547C16.3452 30.1949 16.7427 29.9421 17.1661 29.6975C18.5739 28.883 20.1627 28.2042 21.8834 27.6706C21.9657 27.6706 22.048 27.6741 22.1315 27.6741C22.1927 27.6741 22.2526 27.6741 22.262 27.6694C24.613 27.6554 26.8523 27.2071 28.7058 26.3926C29.6596 26.3166 30.6299 26.2768 31.6119 26.2768C35.3013 26.2768 38.8272 26.8233 41.9061 27.8484V28.6524C41.9061 30.4652 43.0999 32.1516 45.2662 33.4002V33.4026ZM16.097 26.6267C17.1496 27.0304 18.3081 27.323 19.53 27.495C18.5221 27.9011 17.5695 28.361 16.6851 28.8724C15.9829 29.2774 15.342 29.7057 14.7622 30.1539C14.1389 30.0228 13.4991 29.9269 12.851 29.8637C13.5379 28.7168 14.6328 27.6202 16.097 26.6267ZM31.6119 25.323C31.272 25.323 30.9333 25.3277 30.5969 25.337C31.733 24.5295 32.5092 23.5805 32.8821 22.5576C36.1128 22.6676 39.1859 23.1978 41.9061 24.1012V26.8467C38.8013 25.8531 35.2824 25.3242 31.6119 25.3242V25.323ZM41.9085 23.0843C41.9085 23.0843 41.9085 23.0925 41.9073 23.0971C40.2926 22.581 38.5649 22.1913 36.7608 21.9362C35.5729 21.7677 34.351 21.6577 33.109 21.6085C33.1267 21.4541 33.1361 21.2984 33.1361 21.1428V17.6121C36.8525 17.7349 40.536 18.3002 43.9243 19.3101C42.6224 20.3985 41.9179 21.7033 41.9085 23.0843ZM14.4058 25.8274C14.6199 25.9503 14.8433 26.0673 15.0715 26.1785C14.7104 26.4441 14.3717 26.7168 14.0565 26.9965C13.0627 27.8754 12.303 28.8151 11.7961 29.7911C9.54037 29.6987 7.24937 30.0064 5.27002 30.7156C5.94392 27.8192 8.07145 25.11 11.4515 22.8713C11.9702 23.9877 12.9757 25.0023 14.407 25.8274H14.4058ZM11.0128 30.6864C13.6378 30.6864 16.2676 31.2621 18.2728 32.4149C20.1345 33.4845 21.1601 34.8795 21.1624 36.3435C21.1624 36.4032 21.1577 36.4628 21.1554 36.5214C21.1518 36.5822 21.1471 36.6419 21.1401 36.7016C21.1377 36.7262 21.1342 36.7519 21.1307 36.7765C21.1212 36.842 21.1107 36.9075 21.0977 36.9731C21.0942 36.9918 21.0895 37.0105 21.086 37.0281C21.0707 37.0995 21.0519 37.1697 21.0319 37.2411C21.0283 37.2528 21.0248 37.2645 21.0213 37.2762C20.9978 37.3534 20.9719 37.4295 20.9437 37.5056C20.9413 37.5102 20.939 37.5161 20.9378 37.5208C20.7084 38.1094 20.3098 38.6747 19.7546 39.1954C19.7546 39.1954 19.7523 39.1966 19.7523 39.1978C19.6747 39.2703 19.5935 39.3429 19.51 39.4143C19.4959 39.426 19.4818 39.4365 19.4677 39.4482C19.3959 39.5079 19.3218 39.5688 19.2454 39.6273C19.2066 39.6577 19.1642 39.687 19.1243 39.7162C19.0702 39.756 19.0172 39.7958 18.962 39.8356C18.762 39.9748 18.5492 40.1106 18.3234 40.2417C17.9929 40.4324 17.6448 40.6068 17.2825 40.7659C13.278 42.5284 7.50693 42.3552 3.82815 40.2417C3.12838 39.8403 2.54739 39.3932 2.09343 38.9146C1.33838 38.1164 0.937337 37.2282 0.934985 36.313C0.932633 34.8607 1.94289 33.4763 3.77757 32.4149C5.76868 31.2633 8.39017 30.6875 11.014 30.6875L11.0128 30.6864ZM18.2892 46.8689C22.4796 48.2264 27.1545 48.904 31.8248 48.8982C31.9706 50.0977 32.6445 51.227 33.7806 52.1937C26.6853 52.5015 19.41 51.1872 13.7801 48.251C15.4396 48.0076 16.9803 47.5372 18.2892 46.8689ZM50.1164 52.3505C48.2229 53.4424 45.6978 54.0532 43.0058 54.0685C42.9881 54.0685 42.8987 54.072 42.8811 54.0731C40.1314 54.0731 37.5523 53.4611 35.6212 52.3493C33.7535 51.2738 32.7256 49.8719 32.7256 48.4032V45.5278C32.7315 45.536 32.7398 45.5442 32.7456 45.5535C32.8056 45.6331 32.868 45.7127 32.9326 45.7911C32.9444 45.8051 32.9562 45.8204 32.9691 45.8344C33.0385 45.9163 33.1114 45.9982 33.1867 46.0778C33.1961 46.0872 33.2043 46.0965 33.2137 46.1059C33.2937 46.1902 33.3772 46.2744 33.4642 46.3563C33.4689 46.361 33.4736 46.3645 33.4772 46.3692C33.9452 46.8116 34.5051 47.2247 35.1531 47.5968C35.5906 47.8484 36.0575 48.0731 36.5456 48.2721C38.4355 49.0468 40.656 49.4353 42.8764 49.4353C44.7958 49.4353 46.714 49.1463 48.4146 48.567C48.571 48.5143 48.7251 48.4582 48.8779 48.3997C49.4825 48.1691 50.054 47.9011 50.5844 47.5945C50.5974 47.5863 50.6103 47.5793 50.6233 47.5711C50.7232 47.5126 50.8208 47.4529 50.9161 47.3932C50.9337 47.3827 50.9514 47.3721 50.9678 47.3604C51.0749 47.2926 51.1784 47.2224 51.2795 47.1521C51.2913 47.1439 51.303 47.1357 51.3148 47.1276C51.4218 47.0527 51.5241 46.9766 51.6253 46.8994C51.6288 46.8958 51.6335 46.8935 51.637 46.89C52.1663 46.4804 52.6073 46.038 52.9542 45.5699V48.4675C52.9542 49.9093 51.9463 51.2879 50.1175 52.3505H50.1164ZM60.2283 32.6009C58.3348 33.6928 55.8098 34.3037 53.1177 34.3189C53.1001 34.3189 53.0107 34.3224 52.9931 34.3236C50.2434 34.3236 47.6642 33.7115 45.7331 32.5998C43.8655 31.5243 42.8376 30.1223 42.8376 28.6536V25.7782C42.8435 25.7864 42.8517 25.7946 42.8576 25.804C42.9176 25.8836 42.9799 25.9631 43.0446 26.0415C43.0563 26.0556 43.0681 26.0696 43.081 26.0848C43.1504 26.1668 43.2233 26.2487 43.2986 26.3283C43.3069 26.3376 43.3163 26.347 43.3257 26.3563C43.4056 26.4406 43.4891 26.5249 43.5762 26.6068C43.5809 26.6115 43.5856 26.615 43.5891 26.6197C44.0572 27.062 44.617 27.4751 45.265 27.8473C45.7025 28.0989 46.1694 28.3236 46.6575 28.5225C48.5475 29.2973 50.7679 29.6858 52.9883 29.6858C54.9077 29.6858 56.8259 29.3956 58.5265 28.8174C58.6829 28.7648 58.837 28.7086 58.9899 28.6501C59.5932 28.4195 60.166 28.1516 60.6964 27.8449C60.7093 27.8379 60.7223 27.8297 60.7352 27.8215C60.8352 27.763 60.9328 27.7033 61.0292 27.6437C61.0469 27.6331 61.0645 27.6226 61.081 27.6109C61.188 27.543 61.2915 27.4728 61.3926 27.4026C61.4044 27.3944 61.4162 27.3862 61.4279 27.378C61.5349 27.3031 61.6373 27.227 61.7384 27.1498C61.7419 27.1463 61.7466 27.1439 61.7502 27.1404C62.2794 26.7308 62.7204 26.2885 63.0674 25.8204V28.718C63.0674 30.1597 62.0595 31.5383 60.2307 32.6009H60.2283Z" fill="url(#paint0_linear_20_84996)"/>
</g>
<defs>
<linearGradient id="paint0_linear_20_84996" x1="-0.238443" y1="31.9976" x2="150.395" y2="31.9976" gradientUnits="userSpaceOnUse">
<stop stop-color="#0088AC"/>
<stop offset="0.135" stop-color="#0054A6"/>
<stop offset="0.335" stop-color="#662D91"/>
</linearGradient>
<clipPath id="clip0_20_84996">
<rect width="64" height="46" fill="white" transform="translate(0 9)"/>
</clipPath>
</defs>
</svg>
