<svg width="65" height="64" viewBox="0 0 65 64" fill="none" xmlns="http://www.w3.org/2000/svg">
<g clip-path="url(#clip0_14_46041)">
<path d="M11.0227 55.5377L10.0903 54.9954C6.14242 52.6961 3.95782 47.8464 3.93941 41.3398C3.89107 27.5932 13.5779 10.7955 25.5345 3.89397C28.9276 1.93084 32.193 0.940633 35.1246 0.940633C37.1503 0.940633 39.0173 1.41386 40.6574 2.36837L41.5748 2.90147C38.0711 2.46509 34.0622 3.47141 29.8933 5.88014C28.7469 6.54219 27.6224 7.29406 26.5232 8.12307C27.6212 7.29521 28.7457 6.5445 29.8898 5.88359C35.9096 2.40521 41.5989 1.85484 45.906 4.33381C45.9336 4.34993 45.9612 4.3672 45.9889 4.38332C45.975 4.37411 45.9635 4.36259 45.9486 4.35453C45.9486 4.35453 45.9463 4.35453 45.9463 4.35338L41.1293 1.55663C36.8096 -0.95342 31.1053 -0.412262 25.0648 3.08224C12.8481 10.1323 2.94955 27.2973 3.00019 41.3433C3.01976 48.1964 5.36895 53.3328 9.61729 55.8071L14.4469 58.6154C14.4469 58.6154 14.4549 58.6189 14.4584 58.6212C13.1209 57.8463 11.9711 56.8089 11.0227 55.5377Z" fill="url(#paint0_linear_14_46041)"/>
<path d="M10.8184 55.2557C10.8644 55.3202 10.9104 55.3835 10.9565 55.448C10.9104 55.3847 10.8632 55.3214 10.8184 55.2557Z" fill="url(#paint1_linear_14_46041)"/>
<path d="M8.54492 50.186C8.55413 50.2206 8.56334 50.254 8.57255 50.2874C8.56334 50.254 8.55413 50.2194 8.54492 50.186Z" fill="url(#paint2_linear_14_46041)"/>
<path d="M8.02344 47.4365C8.03034 47.4952 8.0384 47.5551 8.04646 47.6138C8.0384 47.5551 8.03034 47.4964 8.02344 47.4365Z" fill="url(#paint3_linear_14_46041)"/>
<path d="M8.28906 49.0796C8.29367 49.1015 8.29827 49.1233 8.30287 49.1464C8.29827 49.1245 8.29367 49.1026 8.28906 49.0796Z" fill="url(#paint4_linear_14_46041)"/>
<path d="M8.4375 49.7474C8.44901 49.7946 8.45937 49.8419 8.47088 49.8879C8.45937 49.8407 8.44786 49.7946 8.4375 49.7474Z" fill="url(#paint5_linear_14_46041)"/>
<path d="M8.20312 48.6144C8.21233 48.6673 8.22269 48.7203 8.2319 48.7733C8.22154 48.7203 8.21233 48.6673 8.20312 48.6144Z" fill="url(#paint6_linear_14_46041)"/>
<path d="M7.83398 44.9518C7.83629 45.022 7.83859 45.0911 7.84089 45.1602C7.83859 45.0911 7.83514 45.0209 7.83398 44.9518Z" fill="url(#paint7_linear_14_46041)"/>
<path d="M7.90039 46.2148C7.90499 46.2793 7.91075 46.345 7.9165 46.4094C7.91075 46.345 7.90615 46.2805 7.90039 46.2148Z" fill="url(#paint8_linear_14_46041)"/>
<path d="M7.9707 46.9863C7.97531 47.0324 7.97991 47.0784 7.98567 47.1245C7.98106 47.0784 7.97646 47.0324 7.9707 46.9863Z" fill="url(#paint9_linear_14_46041)"/>
<path d="M10.2891 54.4417C10.3086 54.4739 10.3293 54.5061 10.3489 54.5395C10.3293 54.5073 10.3086 54.475 10.2891 54.4417Z" fill="url(#paint10_linear_14_46041)"/>
<path d="M10.0859 54.0894C10.1113 54.1331 10.1354 54.178 10.1608 54.2218C10.1354 54.178 10.1101 54.1343 10.0859 54.0894Z" fill="url(#paint11_linear_14_46041)"/>
<path d="M7.82227 44.4164C7.82227 44.4878 7.82342 44.5592 7.82572 44.6305C7.82457 44.5592 7.82342 44.4878 7.82227 44.4164Z" fill="url(#paint12_linear_14_46041)"/>
<path d="M9.93555 53.8118C9.9436 53.8279 9.95166 53.844 9.96087 53.8601C9.95281 53.844 9.94475 53.8279 9.93555 53.8118Z" fill="url(#paint13_linear_14_46041)"/>
<path d="M9.4707 52.8596C9.48336 52.8873 9.49487 52.916 9.50754 52.9425C9.49487 52.9149 9.48336 52.8873 9.4707 52.8596Z" fill="url(#paint14_linear_14_46041)"/>
<path d="M9.625 53.1958C9.64457 53.2373 9.66413 53.2787 9.68485 53.3202C9.66529 53.2787 9.64457 53.2373 9.625 53.1958Z" fill="url(#paint15_linear_14_46041)"/>
<path d="M8.85352 51.2419C8.86618 51.2788 8.87769 51.3168 8.89035 51.3536C8.87769 51.3168 8.86503 51.2799 8.85352 51.2419Z" fill="url(#paint16_linear_14_46041)"/>
<path d="M9.21484 52.2471C9.23096 52.2862 9.24592 52.3254 9.26203 52.3645C9.24592 52.3254 9.22981 52.2862 9.21484 52.2471Z" fill="url(#paint17_linear_14_46041)"/>
<path d="M14.2515 57.3789C14.2435 57.3732 14.2354 57.3685 14.2285 57.3628C14.2366 57.3685 14.2446 57.3732 14.2515 57.3789Z" fill="url(#paint18_linear_14_46041)"/>
<path d="M12.2162 55.5252C12.1483 55.4446 12.0804 55.3651 12.0137 55.2822C12.0793 55.3651 12.1472 55.4446 12.2162 55.5252Z" fill="url(#paint19_linear_14_46041)"/>
<path d="M14.5923 57.604C14.5923 57.604 14.5894 57.6026 14.5879 57.6011C14.5894 57.6011 14.5908 57.6026 14.5923 57.604Z" fill="url(#paint20_linear_14_46041)"/>
<path d="M11.9712 55.2258C11.8941 55.1279 11.817 55.0289 11.7422 54.9287C11.817 55.03 11.893 55.1279 11.9712 55.2258Z" fill="url(#paint21_linear_14_46041)"/>
<path d="M12.4718 55.8164C12.4131 55.7519 12.3544 55.6886 12.2969 55.6218C12.3544 55.6875 12.4131 55.7519 12.4718 55.8164Z" fill="url(#paint22_linear_14_46041)"/>
<path d="M9.91123 35.3664C12.4572 25.3032 18.9731 15.0534 26.9391 8.98556C26.9817 8.95332 27.0243 8.91993 27.0669 8.8877C16.6791 16.723 8.72225 31.6877 8.75793 44.1424C8.77059 48.6156 9.80649 52.3035 11.7344 54.9195C9.80649 52.3024 8.77059 48.6121 8.75793 44.1401C8.74988 41.3077 9.15618 38.3463 9.91008 35.3664H9.91123Z" fill="url(#paint23_linear_14_46041)"/>
<path d="M25.5876 58.3138C21.5741 59.6679 17.8989 59.5193 14.9535 57.8245C14.8304 57.7531 14.7095 57.6805 14.5898 57.6045C14.5887 57.6045 14.5875 57.6034 14.5864 57.6022C14.4724 57.5309 14.3608 57.456 14.2503 57.38C14.2422 57.3743 14.2342 57.3697 14.2272 57.3639C14.1248 57.2925 14.0235 57.2188 13.9234 57.144C13.9084 57.1325 13.8935 57.1221 13.8785 57.1106C13.7876 57.0415 13.6989 56.9701 13.6092 56.8976C13.5861 56.8792 13.5631 56.8607 13.5401 56.8423C13.4618 56.7767 13.3847 56.7088 13.3076 56.642C13.2765 56.6143 13.2443 56.5879 13.2132 56.5602C13.1476 56.5004 13.0832 56.4393 13.0187 56.3772C12.9784 56.3392 12.937 56.3012 12.8967 56.262C12.8437 56.2102 12.792 56.1561 12.7402 56.102C12.6907 56.0513 12.64 56.0018 12.5917 55.95C12.5514 55.9074 12.5123 55.8625 12.472 55.8187C12.4133 55.7542 12.3546 55.6909 12.297 55.6241C12.2694 55.5919 12.2429 55.5597 12.2153 55.5274C12.1474 55.4468 12.0795 55.3674 12.0127 55.2845C11.9978 55.2661 11.984 55.2465 11.969 55.2281C11.8919 55.1302 11.8148 55.0312 11.7399 54.931C11.7376 54.9275 11.7353 54.9241 11.733 54.9206C9.80511 52.3046 8.76806 48.6167 8.75655 44.1435C8.72202 31.6888 16.6777 16.7241 27.0655 8.88881C28.1394 8.07822 29.2397 7.34478 30.3585 6.6977C36.0778 3.39318 41.4311 2.84281 45.4366 5.14791C49.4144 7.43805 51.6152 12.2958 51.6336 18.8277C51.637 20.2313 51.538 21.667 51.347 23.1201L52.3817 22.3636C52.5095 21.1673 52.5762 19.986 52.5728 18.8254C52.5532 11.9895 50.2144 6.8658 45.9868 4.38338C45.9591 4.36726 45.9327 4.34999 45.9039 4.33387C41.5969 1.85491 35.9075 2.40528 29.8877 5.88366C28.7436 6.54456 27.6191 7.29527 26.5211 8.12313C15.9112 16.1288 7.78165 31.4183 7.81848 44.1447C7.81848 44.2356 7.82079 44.3266 7.82194 44.4164C7.82194 44.4878 7.82309 44.5592 7.82539 44.6306C7.82769 44.7376 7.82999 44.8447 7.83345 44.9507C7.83575 45.0209 7.83805 45.09 7.84035 45.1591C7.84726 45.3421 7.85647 45.5252 7.86683 45.706C7.87028 45.7705 7.87373 45.8349 7.87834 45.8994C7.88524 46.0053 7.8933 46.1101 7.90136 46.2137C7.90596 46.2782 7.91172 46.3439 7.91747 46.4083C7.93358 46.6029 7.952 46.7952 7.97272 46.9852C7.97732 47.0312 7.98193 47.0773 7.98768 47.1233C7.99919 47.2281 8.01185 47.3318 8.02566 47.4342C8.03257 47.493 8.04063 47.5528 8.04868 47.6115C8.09357 47.9512 8.14652 48.2851 8.20522 48.6133C8.21443 48.6662 8.22479 48.7192 8.23399 48.7722C8.25356 48.8746 8.27198 48.9771 8.2927 49.0784C8.2973 49.1003 8.3019 49.1222 8.30651 49.1452C8.34794 49.3479 8.39283 49.5482 8.43887 49.7462C8.45038 49.7934 8.46074 49.8407 8.47225 49.8867C8.49642 49.9869 8.52174 50.0859 8.54707 50.1838C8.55627 50.2183 8.56548 50.2517 8.57469 50.2851C8.62418 50.4693 8.67483 50.6512 8.72892 50.8309C8.74159 50.8712 8.7531 50.9126 8.76576 50.9529C8.79568 51.0496 8.82561 51.1452 8.85669 51.2396C8.86935 51.2764 8.88086 51.3144 8.89352 51.3513C8.95107 51.5263 9.01207 51.6979 9.07422 51.8683C9.08689 51.9028 9.09955 51.9374 9.11221 51.9719C9.14674 52.0629 9.18127 52.1538 9.21695 52.2436C9.23306 52.2828 9.24803 52.3219 9.26414 52.3611C9.33205 52.5292 9.40226 52.6938 9.47477 52.8573C9.48743 52.885 9.49894 52.9137 9.5116 52.9402C9.54959 53.0254 9.58872 53.1095 9.62901 53.1935C9.64857 53.235 9.66814 53.2764 9.68886 53.3179C9.76943 53.4848 9.8523 53.6483 9.93862 53.8095C9.94668 53.8256 9.95474 53.8418 9.96395 53.8579C10.0054 53.935 10.048 54.011 10.0906 54.087C10.1159 54.1308 10.14 54.1757 10.1654 54.2194C10.208 54.2931 10.2505 54.3668 10.2931 54.4393C10.3127 54.4716 10.3334 54.5038 10.353 54.5372C10.4324 54.6673 10.513 54.7951 10.5958 54.9206C10.6281 54.969 10.6603 55.0173 10.6925 55.0657C10.7351 55.129 10.7789 55.1924 10.8226 55.2545C10.8686 55.319 10.9147 55.3823 10.9607 55.4468C10.9826 55.4768 11.0044 55.5078 11.0263 55.5378C11.9747 56.8089 13.1246 57.8463 14.4621 58.6212C14.4713 58.627 14.4805 58.6327 14.4897 58.6373C16.2645 59.6586 18.2719 60.1653 20.4415 60.1653C21.9033 60.1653 23.4398 59.9315 25.0259 59.4733L25.5922 58.3127L25.5876 58.3138Z" fill="url(#paint24_linear_14_46041)"/>
<path d="M40.7419 46.8125C37.5848 50.718 33.9292 54.0203 30.0331 56.2724C29.8972 56.3507 29.7626 56.4255 29.6279 56.5015L28.668 58.0605C29.2757 57.7658 29.8869 57.4434 30.5027 57.0876C34.4471 54.809 38.1487 51.4745 41.3543 47.5321L40.7419 46.8136V46.8125Z" fill="url(#paint25_linear_14_46041)"/>
<path d="M31.4858 28.2727C31.487 28.5191 31.6182 28.747 31.8334 28.8702C31.9405 28.9313 32.059 28.9623 32.1776 28.9623C32.2962 28.9623 32.417 28.9313 32.5229 28.8702L46.8068 20.6274C47.0197 20.5042 47.1521 20.275 47.1521 20.0275C47.1521 15.3827 45.5349 11.8986 42.5964 10.2164C39.6522 8.53996 35.8102 8.90495 31.7817 11.2481C31.5687 11.3713 31.4364 11.6004 31.4375 11.8479L31.449 15.7684L31.4778 25.8927L31.4847 28.2715L31.4858 28.2727ZM32.8233 12.2486C35.2726 10.8946 37.6011 10.3523 39.6119 10.6413C40.4372 10.7599 41.2095 11.0178 41.9127 11.4185C44.3183 12.7967 45.6811 15.704 45.7651 19.6302L32.8647 27.0752L32.8394 18.2382L32.8222 12.2498L32.8233 12.2486Z" fill="url(#paint26_linear_14_46041)"/>
<path d="M43.5651 25.1374C43.3521 25.0142 43.0886 25.0153 42.8745 25.1374L29.615 32.7953L29.6058 29.7084L29.5712 17.5554C29.5701 17.309 29.4389 17.081 29.2236 16.9578C29.0107 16.8346 28.7471 16.8358 28.533 16.9578C22.0322 20.7114 16.5235 28.7988 14.637 36.6525C14.1801 38.5535 13.9349 40.4395 13.9395 42.2483C13.9533 46.8792 15.5647 50.3553 18.4802 52.0329C19.6991 52.7341 21.0746 53.0818 22.5559 53.0818C24.5736 53.0818 26.7916 52.4336 29.0775 51.1544L30.2331 48.786C29.7059 49.1613 29.1695 49.5079 28.6251 49.8211C25.0156 51.9074 21.6581 52.2666 19.1697 50.8332C17.3557 49.7888 16.1379 47.8648 15.6142 45.2857C15.4243 44.3542 15.3253 43.3364 15.3219 42.2437C15.3069 36.9542 17.5341 30.96 20.9721 26.0481C23.0209 23.1213 25.499 20.579 28.1889 18.7966L28.2326 33.9928C28.2338 34.2392 28.365 34.4672 28.5802 34.5904C28.7932 34.7136 29.0567 34.7124 29.2708 34.5904L42.4912 26.9543C42.3301 29.6589 41.6233 32.5063 40.5023 35.2708L41.4795 36.4729C43.023 32.907 43.9196 29.1776 43.9104 25.7326C43.9092 25.4862 43.778 25.2583 43.5628 25.1351L43.5651 25.1374Z" fill="url(#paint27_linear_14_46041)"/>
<path d="M60.5975 17.1339C60.3005 16.9301 59.9034 16.9348 59.5305 17.1501C59.4833 17.1765 59.4373 17.2076 59.3843 17.2445L52.3862 22.3613L51.3515 23.1178L47.277 26.0964C46.7498 26.481 46.3918 27.2018 46.4241 27.8109C46.4436 28.1816 46.6059 28.4729 46.8845 28.6353L48.9712 29.812C49.0081 29.8753 49.0092 30.162 48.7974 30.4982L43.7503 38.3692C43.6179 38.5753 43.4833 38.672 43.4154 38.7123C43.3762 38.7342 43.3451 38.7457 43.3417 38.7595L41.484 36.4729L40.5068 35.2708L39.258 33.7337C38.9668 33.3744 38.4764 33.318 38.008 33.5886C37.688 33.774 37.3979 34.101 37.2149 34.4832L30.2364 48.7848L29.0808 51.1532L25.5887 58.3103L25.0224 59.4709L24.204 61.1485C23.8875 61.8083 23.9243 62.4127 24.3019 62.7628C24.4699 62.9182 24.6805 62.9977 24.905 62.9965C25.0915 62.9965 25.2883 62.9424 25.4782 62.833C25.7176 62.6937 25.934 62.4772 26.1285 62.179L28.6665 58.057L29.6264 56.498L37.444 43.8015C37.574 43.5989 37.7053 43.5045 37.7732 43.4653C37.8134 43.4423 37.8445 43.4308 37.8457 43.4158L40.7404 46.8101L41.3528 47.5286L42.6534 49.0542C42.9446 49.3962 43.4292 49.4457 43.8861 49.1809C44.1439 49.0323 44.3776 48.7974 44.5618 48.5027L54.0115 33.3111C54.1081 33.1534 54.2325 33.0233 54.3533 32.9542C54.4005 32.9265 54.4362 32.9162 54.4293 32.9024L56.424 34.5673C56.7255 34.8206 57.1479 34.8321 57.5519 34.5984C58.0423 34.3151 58.4359 33.7256 58.5314 33.1315L60.975 18.2623C61.0556 17.7672 60.9163 17.355 60.594 17.1328L60.5975 17.1339ZM38.4787 34.4061C38.5167 34.3831 38.5478 34.3727 38.5524 34.3589L42.635 39.3836C42.9262 39.7428 43.4154 39.7993 43.885 39.5287C44.1336 39.3847 44.3603 39.1602 44.5399 38.8793L48.2611 33.0751L49.587 31.006C49.8782 30.5478 49.991 30.0296 49.8909 29.6174C49.8264 29.3538 49.6802 29.1488 49.4639 29.0233L47.3748 27.8454C47.3034 27.7176 47.4381 27.1419 47.8294 26.8575L59.9333 18.0079L59.999 17.9641C60.0231 17.9503 60.0415 17.9411 60.0542 17.933C60.0611 17.9676 60.0634 18.0263 60.0496 18.1115L57.606 32.9807C57.5473 33.3399 57.2918 33.6634 57.0835 33.7843C57.0409 33.8097 57.0087 33.82 57.011 33.8315L55.014 32.1643C54.7136 31.9156 54.2912 31.9053 53.886 32.139C53.6259 32.2887 53.3934 32.5236 53.2138 32.816L43.7653 48.0053C43.6663 48.1653 43.5397 48.2966 43.4177 48.3668C43.3785 48.3898 43.3475 48.4014 43.3451 48.4152L38.5363 42.7768C38.2428 42.4383 37.7571 42.3888 37.3047 42.6524C37.0584 42.794 36.8328 43.0163 36.6498 43.303L25.3355 61.6782C25.195 61.8935 25.0696 61.9856 25.0074 62.0224C24.9741 62.042 24.9464 62.0524 24.9372 62.0616C24.9211 62.0017 24.9165 61.8359 25.0477 61.5596L35.8314 39.4596L38.0598 34.8943C38.1622 34.679 38.3187 34.4959 38.4776 34.4049L38.4787 34.4061Z" fill="url(#paint28_linear_14_46041)"/>
</g>
<defs>
<linearGradient id="paint0_linear_14_46041" x1="2.83984" y1="29.3085" x2="104.019" y2="29.3085" gradientUnits="userSpaceOnUse">
<stop stop-color="#0088AC"/>
<stop offset="0.135" stop-color="#0054A6"/>
<stop offset="0.335" stop-color="#662D91"/>
</linearGradient>
<linearGradient id="paint1_linear_14_46041" x1="10.8178" y1="55.3519" x2="11.1429" y2="55.3519" gradientUnits="userSpaceOnUse">
<stop stop-color="#0088AC"/>
<stop offset="0.135" stop-color="#0054A6"/>
<stop offset="0.335" stop-color="#662D91"/>
</linearGradient>
<linearGradient id="paint2_linear_14_46041" x1="8.54482" y1="50.2367" x2="8.60983" y2="50.2367" gradientUnits="userSpaceOnUse">
<stop stop-color="#0088AC"/>
<stop offset="0.135" stop-color="#0054A6"/>
<stop offset="0.335" stop-color="#662D91"/>
</linearGradient>
<linearGradient id="paint3_linear_14_46041" x1="8.02335" y1="47.5252" x2="8.07753" y2="47.5252" gradientUnits="userSpaceOnUse">
<stop stop-color="#0088AC"/>
<stop offset="0.135" stop-color="#0054A6"/>
<stop offset="0.335" stop-color="#662D91"/>
</linearGradient>
<linearGradient id="paint4_linear_14_46041" x1="8.28901" y1="49.113" x2="8.32152" y2="49.113" gradientUnits="userSpaceOnUse">
<stop stop-color="#0088AC"/>
<stop offset="0.135" stop-color="#0054A6"/>
<stop offset="0.335" stop-color="#662D91"/>
</linearGradient>
<linearGradient id="paint5_linear_14_46041" x1="8.43738" y1="49.8177" x2="8.51594" y2="49.8177" gradientUnits="userSpaceOnUse">
<stop stop-color="#0088AC"/>
<stop offset="0.135" stop-color="#0054A6"/>
<stop offset="0.335" stop-color="#662D91"/>
</linearGradient>
<linearGradient id="paint6_linear_14_46041" x1="8.20302" y1="48.6938" x2="8.27074" y2="48.6938" gradientUnits="userSpaceOnUse">
<stop stop-color="#0088AC"/>
<stop offset="0.135" stop-color="#0054A6"/>
<stop offset="0.335" stop-color="#662D91"/>
</linearGradient>
<linearGradient id="paint7_linear_14_46041" x1="7.83396" y1="45.056" x2="7.85021" y2="45.056" gradientUnits="userSpaceOnUse">
<stop stop-color="#0088AC"/>
<stop offset="0.135" stop-color="#0054A6"/>
<stop offset="0.335" stop-color="#662D91"/>
</linearGradient>
<linearGradient id="paint8_linear_14_46041" x1="7.90033" y1="46.3121" x2="7.93826" y2="46.3121" gradientUnits="userSpaceOnUse">
<stop stop-color="#0088AC"/>
<stop offset="0.135" stop-color="#0054A6"/>
<stop offset="0.335" stop-color="#662D91"/>
</linearGradient>
<linearGradient id="paint9_linear_14_46041" x1="7.97065" y1="47.0554" x2="8.00586" y2="47.0554" gradientUnits="userSpaceOnUse">
<stop stop-color="#0088AC"/>
<stop offset="0.135" stop-color="#0054A6"/>
<stop offset="0.335" stop-color="#662D91"/>
</linearGradient>
<linearGradient id="paint10_linear_14_46041" x1="10.2888" y1="54.4906" x2="10.4297" y2="54.4906" gradientUnits="userSpaceOnUse">
<stop stop-color="#0088AC"/>
<stop offset="0.135" stop-color="#0054A6"/>
<stop offset="0.335" stop-color="#662D91"/>
</linearGradient>
<linearGradient id="paint11_linear_14_46041" x1="10.0857" y1="54.1556" x2="10.2617" y2="54.1556" gradientUnits="userSpaceOnUse">
<stop stop-color="#0088AC"/>
<stop offset="0.135" stop-color="#0054A6"/>
<stop offset="0.335" stop-color="#662D91"/>
</linearGradient>
<linearGradient id="paint12_linear_14_46041" x1="7.82225" y1="44.5235" x2="7.83038" y2="44.5235" gradientUnits="userSpaceOnUse">
<stop stop-color="#0088AC"/>
<stop offset="0.135" stop-color="#0054A6"/>
<stop offset="0.335" stop-color="#662D91"/>
</linearGradient>
<linearGradient id="paint13_linear_14_46041" x1="9.93545" y1="53.8359" x2="9.99505" y2="53.8359" gradientUnits="userSpaceOnUse">
<stop stop-color="#0088AC"/>
<stop offset="0.135" stop-color="#0054A6"/>
<stop offset="0.335" stop-color="#662D91"/>
</linearGradient>
<linearGradient id="paint14_linear_14_46041" x1="9.47057" y1="52.9011" x2="9.55725" y2="52.9011" gradientUnits="userSpaceOnUse">
<stop stop-color="#0088AC"/>
<stop offset="0.135" stop-color="#0054A6"/>
<stop offset="0.335" stop-color="#662D91"/>
</linearGradient>
<linearGradient id="paint15_linear_14_46041" x1="9.62478" y1="53.258" x2="9.76565" y2="53.258" gradientUnits="userSpaceOnUse">
<stop stop-color="#0088AC"/>
<stop offset="0.135" stop-color="#0054A6"/>
<stop offset="0.335" stop-color="#662D91"/>
</linearGradient>
<linearGradient id="paint16_linear_14_46041" x1="8.85338" y1="51.2978" x2="8.94007" y2="51.2978" gradientUnits="userSpaceOnUse">
<stop stop-color="#0088AC"/>
<stop offset="0.135" stop-color="#0054A6"/>
<stop offset="0.335" stop-color="#662D91"/>
</linearGradient>
<linearGradient id="paint17_linear_14_46041" x1="9.21467" y1="52.3058" x2="9.32574" y2="52.3058" gradientUnits="userSpaceOnUse">
<stop stop-color="#0088AC"/>
<stop offset="0.135" stop-color="#0054A6"/>
<stop offset="0.335" stop-color="#662D91"/>
</linearGradient>
<linearGradient id="paint18_linear_14_46041" x1="14.2284" y1="57.3709" x2="14.2826" y2="57.3709" gradientUnits="userSpaceOnUse">
<stop stop-color="#0088AC"/>
<stop offset="0.135" stop-color="#0054A6"/>
<stop offset="0.335" stop-color="#662D91"/>
</linearGradient>
<linearGradient id="paint19_linear_14_46041" x1="12.0129" y1="55.4037" x2="12.4897" y2="55.4037" gradientUnits="userSpaceOnUse">
<stop stop-color="#0088AC"/>
<stop offset="0.135" stop-color="#0054A6"/>
<stop offset="0.335" stop-color="#662D91"/>
</linearGradient>
<linearGradient id="paint20_linear_14_46041" x1="14.5879" y1="57.6026" x2="14.5982" y2="57.6026" gradientUnits="userSpaceOnUse">
<stop stop-color="#0088AC"/>
<stop offset="0.135" stop-color="#0054A6"/>
<stop offset="0.335" stop-color="#662D91"/>
</linearGradient>
<linearGradient id="paint21_linear_14_46041" x1="11.7413" y1="55.0772" x2="12.2804" y2="55.0772" gradientUnits="userSpaceOnUse">
<stop stop-color="#0088AC"/>
<stop offset="0.135" stop-color="#0054A6"/>
<stop offset="0.335" stop-color="#662D91"/>
</linearGradient>
<linearGradient id="paint22_linear_14_46041" x1="12.2962" y1="55.7191" x2="12.708" y2="55.7191" gradientUnits="userSpaceOnUse">
<stop stop-color="#0088AC"/>
<stop offset="0.135" stop-color="#0054A6"/>
<stop offset="0.335" stop-color="#662D91"/>
</linearGradient>
<linearGradient id="paint23_linear_14_46041" x1="8.6896" y1="31.9015" x2="51.782" y2="31.9015" gradientUnits="userSpaceOnUse">
<stop stop-color="#0088AC"/>
<stop offset="0.135" stop-color="#0054A6"/>
<stop offset="0.335" stop-color="#662D91"/>
</linearGradient>
<linearGradient id="paint24_linear_14_46041" x1="7.65162" y1="31.4828" x2="112.986" y2="31.4828" gradientUnits="userSpaceOnUse">
<stop stop-color="#0088AC"/>
<stop offset="0.135" stop-color="#0054A6"/>
<stop offset="0.335" stop-color="#662D91"/>
</linearGradient>
<linearGradient id="paint25_linear_14_46041" x1="28.6207" y1="52.436" x2="58.4793" y2="52.436" gradientUnits="userSpaceOnUse">
<stop stop-color="#0088AC"/>
<stop offset="0.135" stop-color="#0054A6"/>
<stop offset="0.335" stop-color="#662D91"/>
</linearGradient>
<linearGradient id="paint26_linear_14_46041" x1="31.379" y1="19.07" x2="68.365" y2="19.07" gradientUnits="userSpaceOnUse">
<stop stop-color="#0088AC"/>
<stop offset="0.135" stop-color="#0054A6"/>
<stop offset="0.335" stop-color="#662D91"/>
</linearGradient>
<linearGradient id="paint27_linear_14_46041" x1="13.8278" y1="34.9722" x2="84.3678" y2="34.9722" gradientUnits="userSpaceOnUse">
<stop stop-color="#0088AC"/>
<stop offset="0.135" stop-color="#0054A6"/>
<stop offset="0.335" stop-color="#662D91"/>
</linearGradient>
<linearGradient id="paint28_linear_14_46041" x1="23.8524" y1="39.9886" x2="110.953" y2="39.9886" gradientUnits="userSpaceOnUse">
<stop stop-color="#0088AC"/>
<stop offset="0.135" stop-color="#0054A6"/>
<stop offset="0.335" stop-color="#662D91"/>
</linearGradient>
<clipPath id="clip0_14_46041">
<rect width="58" height="63" fill="white" transform="translate(3)"/>
</clipPath>
</defs>
</svg>
