<svg width="64" height="64" viewBox="0 0 64 64" fill="none" xmlns="http://www.w3.org/2000/svg">
<g clip-path="url(#clip0_20_84900)">
<path d="M55.8983 39.256L22.8108 58.4302C22.5987 58.5533 22.3658 58.6532 22.1208 58.7372C22.3646 58.6556 22.5974 58.5557 22.8096 58.4339L55.9019 39.2572C55.9458 39.2316 55.9873 39.2061 56.0287 39.1793L56.0226 41.6414C56.0226 41.9155 55.7995 42.1993 55.4057 42.4223L22.3146 61.5965C21.3174 62.1752 19.6192 62.1764 18.6122 61.605L8.59124 55.828C8.18772 55.5966 7.96097 55.3091 7.96585 55.0289L7.97194 52.574C8.01949 52.6057 8.06825 52.6362 8.11945 52.6666L15.1195 56.6906L8.12433 52.663C7.43066 52.2634 7.03811 51.7091 7.01129 51.0975L7.00032 55.0191C6.98691 55.6538 7.39165 56.2532 8.1097 56.6662L18.1331 62.4444C18.7878 62.8148 19.6241 62.9999 20.4591 62.9999C21.2942 62.9999 22.1464 62.8111 22.7998 62.4322L55.8873 43.2592C56.5871 42.8621 56.9881 42.2724 56.9881 41.6414L56.9979 37.6844C56.9772 38.2985 56.5895 38.8552 55.897 39.256H55.8983Z" fill="url(#paint0_linear_20_84900)"/>
<path d="M7.97583 51.0171C7.97583 51.0171 7.97461 51.0269 7.97461 51.0318C7.97461 51.1755 8.03922 51.3242 8.15747 51.4655C8.04044 51.3229 7.97705 51.1755 7.97705 51.0293C7.97705 51.0245 7.97705 51.0208 7.97583 51.0159V51.0171Z" fill="url(#paint1_linear_20_84900)"/>
<path d="M56.0324 37.6358C56.0324 37.7041 56.0178 37.7723 55.9922 37.8405C56.0202 37.7711 56.0349 37.7016 56.0349 37.6322C56.0349 37.6297 56.0349 37.6261 56.0349 37.6224C56.0349 37.6249 56.0349 37.6285 56.0349 37.631V37.6358H56.0324Z" fill="url(#paint2_linear_20_84900)"/>
<path d="M15.6719 55.8963L18.627 57.597C18.8208 57.7091 19.0415 57.798 19.278 57.8662C19.0427 57.798 18.8232 57.7079 18.6306 57.597L15.6719 55.8963Z" fill="url(#paint3_linear_20_84900)"/>
<path d="M28.1912 38.8882L35.5301 34.6364L35.5265 33.5217L28.1875 37.7747L28.1912 38.8882Z" fill="url(#paint4_linear_20_84900)"/>
<path d="M8.12329 52.6654L15.1185 56.693L18.143 58.4339C18.7965 58.8103 19.6352 58.9992 20.4715 58.9992C21.0396 58.9992 21.6077 58.9102 22.1185 58.7372C22.3635 58.6544 22.5964 58.5533 22.8085 58.4302L55.896 39.256C56.5872 38.8552 56.9761 38.2985 56.9968 37.6844C56.9968 37.6662 56.9993 37.6491 56.9993 37.6308C56.9993 36.9949 56.6031 36.4175 55.8875 36.0057L47.6915 31.2874L47.6951 32.4033L55.4047 36.8414C55.7985 37.068 56.0252 37.3519 56.0313 37.6223C56.0313 37.626 56.0313 37.6284 56.0313 37.6321C56.0313 37.7015 56.0167 37.7709 55.9886 37.8404C55.9057 38.0463 55.7046 38.2497 55.4096 38.4215L22.3258 57.5945C21.5175 58.0611 20.2606 58.1513 19.278 57.8674C19.0415 57.7992 18.8221 57.709 18.627 57.5982L15.6719 55.8975L8.60605 51.8309C8.41465 51.7213 8.26348 51.597 8.1562 51.4691C8.03795 51.3278 7.97334 51.1791 7.97334 51.0354C7.97334 51.0305 7.97456 51.0256 7.97456 51.0208C7.98187 50.7527 8.20618 50.4725 8.59264 50.2484L16.0389 45.9333L16.0352 44.8198L8.10866 49.4127C7.39792 49.8244 7.00781 50.4019 7.00781 51.0366C7.00781 51.0585 7.00903 51.0805 7.01025 51.1024C7.03707 51.714 7.42962 52.2683 8.12329 52.6679V52.6654Z" fill="url(#paint5_linear_20_84900)"/>
<path d="M35.5307 34.6364L35.5466 40.255C35.5466 40.7399 35.7562 41.1455 36.0976 41.3356L39.4513 43.2811C39.1392 43.0728 38.9588 42.6964 38.9576 42.2322L38.9186 29.8072L38.9539 41.8765L36.5755 40.4974C36.5621 40.4889 36.5109 40.417 36.5109 40.2538L36.4584 22.394L35.4941 22.9471L35.5246 33.5217L35.5283 34.6351L35.5307 34.6364Z" fill="url(#paint6_linear_20_84900)"/>
<path d="M16.0388 45.9309L16.0559 51.5008C16.0559 51.9967 16.2558 52.3914 16.5959 52.5802L20.0045 54.5684C20.035 54.5867 20.0655 54.5989 20.0984 54.6098C20.0691 54.5964 20.0399 54.5842 20.0118 54.5684C19.6656 54.3686 19.4657 53.9727 19.4645 53.4805V53.137L17.0726 51.7433C17.0628 51.7347 17.0202 51.6677 17.0202 51.4996L16.9897 41.0067L16.0254 41.5598L16.0351 44.8162L16.0388 45.9297V45.9309Z" fill="url(#paint7_linear_20_84900)"/>
<path d="M19.4641 52.9372L19.425 39.6094L19.4238 39.6106L19.4641 52.9372Z" fill="url(#paint8_linear_20_84900)"/>
<path d="M36.4613 22.3941L38.8922 20.9992L38.9202 29.806L38.9592 42.231C38.9592 42.6952 39.1409 43.0716 39.453 43.28C39.4713 43.2921 39.4871 43.3055 39.5054 43.3165C39.6614 43.4054 39.8345 43.4493 40.0174 43.4493C40.2466 43.4493 40.4904 43.3799 40.7281 43.2434L46.4335 39.9517C47.165 39.5302 47.716 38.5763 47.7136 37.7344L47.6965 32.4021L47.6928 31.2862L47.6465 16.4806C47.6465 16.2004 47.8806 15.7996 48.1281 15.6571L52.2206 13.2961C52.8825 12.9136 53.4031 12.0888 53.4884 11.2896C53.5408 10.795 53.408 10.3784 53.1154 10.1152L44.3793 2.23671C44.3306 2.19163 44.2782 2.15386 44.2233 2.12097C44.4379 2.2562 44.5037 2.52909 44.3806 2.75325C44.255 2.9835 43.9588 3.06513 43.7259 2.94574C43.7052 2.93599 43.6125 2.93721 43.4711 3.01883C43.437 3.03954 43.4041 3.06269 43.3711 3.08705C43.4041 3.06391 43.4358 3.04198 43.4687 3.02249C43.615 2.93721 43.7125 2.93477 43.732 2.95183L52.4693 10.8315C52.5131 10.8705 52.5485 10.996 52.5278 11.1885C52.4839 11.6161 52.1755 12.2082 51.739 12.4604L47.6465 14.8214C47.0955 15.1393 46.681 15.8544 46.6822 16.4831L46.7493 37.7381C46.7493 38.2266 46.3787 38.8711 45.952 39.1172L40.2466 42.4089C40.1003 42.493 40.0077 42.4918 39.9882 42.4808C39.9687 42.4698 39.9248 42.3906 39.9248 42.2298L39.8723 25.6042L39.8577 20.976C39.8577 20.5825 39.6919 20.2621 39.4054 20.0977C39.2762 20.0233 39.1311 19.9856 38.98 19.9856C38.7959 19.9856 38.602 20.0404 38.4131 20.1488L34.3218 22.5098C34.167 22.6 34.0804 22.5951 34.067 22.5841C34 22.522 33.9536 22.2479 34.0975 21.858C33.9329 22.2917 34.0195 22.5537 34.0646 22.5853C34.295 22.7194 34.3742 23.0142 34.2401 23.2444C34.1511 23.3991 33.989 23.4856 33.822 23.4856C33.7464 23.4856 33.6696 23.4674 33.5977 23.4296C33.9378 23.6209 34.373 23.5953 34.8033 23.3468L35.4958 22.9496L36.4601 22.3965L36.4613 22.3941Z" fill="url(#paint9_linear_20_84900)"/>
<path d="M34.1055 21.8361C34.1189 21.802 34.1347 21.7654 34.1506 21.7301C34.1335 21.7667 34.1189 21.802 34.1055 21.8361Z" fill="url(#paint10_linear_20_84900)"/>
<path d="M42.8357 3.75834C42.8845 3.656 42.943 3.55976 43.0064 3.47083C42.943 3.55976 42.8833 3.656 42.8345 3.7559L38.0312 13.6945L39.2613 11.1508L42.8345 3.75955L42.8357 3.75834Z" fill="url(#paint11_linear_20_84900)"/>
<path d="M13.5895 40.6108L11.183 39.2159C11.133 39.1805 11.0282 38.8516 11.2939 38.3119L19.9519 20.3974C20.125 20.0611 20.3628 19.7834 20.5993 19.6481C20.6956 19.5909 20.7724 19.5738 20.8138 19.5738C20.8285 19.5738 20.8394 19.5762 20.8455 19.5787L23.2581 20.9785C23.3422 20.9115 23.4276 20.8505 23.5154 20.7994C23.9884 20.5265 24.4675 20.5241 24.821 20.7823C24.7954 20.7592 24.7686 20.7385 24.7381 20.7214L21.3198 18.7381C20.9613 18.5419 20.5188 18.57 20.1116 18.8136C19.7166 19.0378 19.3546 19.4435 19.0864 19.9661L10.4271 37.8892C9.98095 38.7956 10.0955 39.7056 10.7002 40.0516L14.0649 42.0032C14.0198 41.9728 13.9759 41.9399 13.9357 41.9021C13.6212 41.611 13.5041 41.1407 13.5895 40.612V40.6108Z" fill="url(#paint12_linear_20_84900)"/>
<path d="M22.9609 21.2612C22.989 21.2295 23.0182 21.2003 23.0475 21.1698C23.0182 21.199 22.989 21.2295 22.9609 21.2612Z" fill="url(#paint13_linear_20_84900)"/>
<path d="M17.3926 32.5069L22.5018 21.947C22.6213 21.7009 22.7724 21.4731 22.9443 21.277C22.77 21.4719 22.6164 21.6985 22.4969 21.9446L17.3926 32.5069Z" fill="url(#paint14_linear_20_84900)"/>
<path d="M14.5349 41.0311C14.5337 41.0177 14.5312 41.0031 14.5312 40.9872C14.5312 41.0031 14.5337 41.0165 14.5349 41.0311Z" fill="url(#paint15_linear_20_84900)"/>
<path d="M14.5505 41.1115C14.5456 41.0932 14.5408 41.0725 14.5371 41.0505C14.5408 41.0737 14.5444 41.0944 14.5505 41.1115Z" fill="url(#paint16_linear_20_84900)"/>
<path d="M14.541 40.785C14.5422 40.7752 14.5447 40.7655 14.5459 40.7545C14.5447 40.7643 14.5422 40.7752 14.541 40.785Z" fill="url(#paint17_linear_20_84900)"/>
<path d="M14.5703 40.6461C14.5752 40.6279 14.5813 40.6084 14.5862 40.5876C14.5801 40.6071 14.574 40.6266 14.5703 40.6461Z" fill="url(#paint18_linear_20_84900)"/>
<path d="M14.5947 41.1943C14.5947 41.1943 14.5911 41.1907 14.5898 41.1895C14.5911 41.1907 14.5923 41.1943 14.5935 41.1955C14.5947 41.1955 14.5972 41.198 14.5996 41.198C14.5984 41.198 14.5972 41.1955 14.5947 41.1943Z" fill="url(#paint19_linear_20_84900)"/>
<path d="M18.0236 33.4205L14.7003 40.2903C14.6576 40.3792 14.6272 40.4609 14.6016 40.5388C14.6272 40.4609 14.6601 40.378 14.7052 40.2879L18.0248 33.4205H18.0236Z" fill="url(#paint20_linear_20_84900)"/>
<path d="M14.571 41.1614C14.571 41.1614 14.5662 41.1504 14.5625 41.1443C14.5649 41.1504 14.5674 41.1565 14.571 41.1614Z" fill="url(#paint21_linear_20_84900)"/>
<path d="M24.0081 21.6363C24.1032 21.5803 24.1763 21.5608 24.2202 21.5583C24.1763 21.5583 24.0995 21.5766 23.9983 21.6351C23.8801 21.7033 23.7643 21.8044 23.6582 21.9275C23.7667 21.8069 23.8862 21.7058 24.0093 21.6363H24.0081Z" fill="url(#paint22_linear_20_84900)"/>
<path d="M16.9901 41.0067L19.4234 39.6105H19.4258L19.4636 52.9383V53.1369L19.4648 53.4805C19.4648 53.9739 19.666 54.3698 20.0122 54.5684C20.0403 54.5842 20.0695 54.5976 20.0988 54.6098C20.2292 54.6683 20.3718 54.6999 20.5206 54.6999C20.751 54.6999 20.9948 54.6305 21.235 54.4916L26.9403 51.1999C27.6608 50.7832 28.2228 49.8098 28.2204 48.9826L28.1911 38.8893L28.1875 37.7758L28.1802 35.092C28.1802 34.8069 28.4057 34.4159 28.6544 34.2721L32.7469 31.9111C33.4052 31.531 33.927 30.7087 34.0147 29.9107C34.0708 29.4149 33.9416 28.9958 33.649 28.7254L24.9057 20.853C24.8788 20.8286 24.8508 20.8067 24.8215 20.7847C24.468 20.5265 23.9889 20.5289 23.5159 20.8006C23.4281 20.8517 23.3416 20.9127 23.2587 20.9797C23.1867 21.0381 23.116 21.1015 23.0478 21.1697C23.0185 21.199 22.9892 21.2294 22.9612 21.2611C22.9563 21.2672 22.9502 21.272 22.9454 21.2781C22.7735 21.4731 22.6211 21.7009 22.5028 21.9482L17.3936 32.5081L13.8302 39.8725C13.7083 40.1247 13.629 40.3744 13.59 40.6132C13.5035 41.1419 13.6217 41.6122 13.9362 41.9033C13.9777 41.9411 14.0204 41.9752 14.0655 42.0044C14.4141 42.2359 14.8774 42.2213 15.3382 41.9557L16.0258 41.561L16.9901 41.0079V41.0067ZM14.5994 41.1979C14.5994 41.1979 14.5946 41.1967 14.5933 41.1955C14.5921 41.1943 14.5909 41.1919 14.5897 41.1894C14.5836 41.1821 14.5763 41.1736 14.5702 41.1614C14.5677 41.1565 14.5653 41.1504 14.5616 41.1443C14.558 41.1346 14.5543 41.1236 14.5507 41.1114C14.5458 41.0932 14.5409 41.0725 14.5373 41.0505C14.5373 41.0444 14.5348 41.0383 14.5348 41.031C14.5336 41.0164 14.5312 41.003 14.5312 40.9872C14.5299 40.9653 14.5299 40.9409 14.5312 40.9153C14.5312 40.9043 14.5312 40.8946 14.5312 40.8836C14.5324 40.852 14.536 40.8191 14.5409 40.785C14.5421 40.7752 14.5446 40.7655 14.5458 40.7545C14.5519 40.7204 14.5592 40.6838 14.569 40.6461C14.5738 40.6278 14.5799 40.6071 14.5848 40.5876C14.5897 40.5718 14.5958 40.5547 14.6006 40.5389C14.6262 40.4609 14.6567 40.3781 14.6994 40.2903L18.0226 33.4206L19.2771 30.8269L23.3708 22.366C23.4488 22.204 23.5476 22.0542 23.6573 21.9275C23.7634 21.8044 23.8804 21.7033 23.9974 21.6351C24.0998 21.5754 24.1766 21.5571 24.2193 21.5583C24.2376 21.5583 24.2498 21.562 24.2559 21.5669L32.9968 29.4368C33.0407 29.4783 33.0748 29.6062 33.0529 29.8023C33.0053 30.2299 32.6969 30.8232 32.2617 31.073L28.1692 33.434C27.6218 33.7507 27.211 34.4622 27.2122 35.092L27.2524 48.9839C27.2524 49.4724 26.8806 50.1168 26.4551 50.3629L20.7498 53.6547C20.5925 53.746 20.5023 53.7363 20.4901 53.7302C20.4779 53.7229 20.4291 53.6547 20.4279 53.4756L20.4023 44.4592L20.3889 39.585C20.3889 39.1939 20.2231 38.8735 19.9366 38.709C19.805 38.6335 19.6599 38.597 19.5063 38.597C19.3234 38.597 19.1308 38.6506 18.9443 38.759L14.853 41.12C14.7104 41.2028 14.6226 41.2077 14.597 41.1992L14.5994 41.1979Z" fill="url(#paint23_linear_20_84900)"/>
<path d="M34.2392 23.242C34.3733 23.0117 34.2941 22.7169 34.0637 22.5829C34.0185 22.5512 33.932 22.2893 34.0966 21.8556C34.099 21.8483 34.1027 21.8422 34.1051 21.8349C34.1185 21.8008 34.1344 21.7654 34.1502 21.7289C34.1575 21.7118 34.1648 21.6948 34.1746 21.6777L38.033 13.6932L42.8363 3.75465C42.885 3.65475 42.9435 3.55851 43.0082 3.46957C43.1167 3.31729 43.2422 3.18572 43.3715 3.08826C43.4044 3.06267 43.4385 3.03953 43.4714 3.02003C43.6128 2.93841 43.7055 2.93719 43.7262 2.94694C43.9578 3.06511 44.2553 2.9847 44.3809 2.75445C44.504 2.53029 44.4382 2.2574 44.2236 2.12217C44.2187 2.11974 44.2151 2.11487 44.2102 2.11243H44.2077L40.8004 0.135189C40.4542 -0.0646058 40.0092 -0.0390224 39.5849 0.20463C39.1778 0.434882 38.8047 0.853964 38.5585 1.35711L29.898 19.2777C29.4506 20.1829 29.5676 21.093 30.1711 21.4414L33.5772 23.4174C33.5772 23.4174 33.5797 23.4186 33.5809 23.4198C33.5833 23.4235 33.5833 23.4211 33.5833 23.4198H33.5858C33.5894 23.4223 33.5943 23.4235 33.598 23.4259C33.6687 23.4625 33.7455 23.482 33.8223 23.482C33.9881 23.482 34.1502 23.3955 34.2404 23.2408L34.2392 23.242ZM30.7648 19.7005L39.4265 1.77741C39.5825 1.457 39.8251 1.17559 40.0616 1.04158C40.1725 0.977008 40.2493 0.964826 40.2884 0.964826C40.303 0.964826 40.3115 0.967262 40.3152 0.968481L42.7265 2.36705C42.4218 2.61435 42.1536 2.95303 41.967 3.33313L33.3066 21.255C33.1822 21.5072 33.1006 21.7606 33.0628 22.0018L30.6551 20.6044C30.6026 20.5691 30.4978 20.2426 30.7648 19.6993V19.7005Z" fill="url(#paint24_linear_20_84900)"/>
</g>
<defs>
<linearGradient id="paint0_linear_20_84900" x1="6.81373" y1="50.3411" x2="124.489" y2="50.3411" gradientUnits="userSpaceOnUse">
<stop stop-color="#0088AC"/>
<stop offset="0.135" stop-color="#0054A6"/>
<stop offset="0.335" stop-color="#662D91"/>
</linearGradient>
<linearGradient id="paint1_linear_20_84900" x1="7.97393" y1="51.2407" x2="8.40432" y2="51.2407" gradientUnits="userSpaceOnUse">
<stop stop-color="#0088AC"/>
<stop offset="0.135" stop-color="#0054A6"/>
<stop offset="0.335" stop-color="#662D91"/>
</linearGradient>
<linearGradient id="paint2_linear_20_84900" x1="55.992" y1="37.7315" x2="56.0925" y2="37.7315" gradientUnits="userSpaceOnUse">
<stop stop-color="#0088AC"/>
<stop offset="0.135" stop-color="#0054A6"/>
<stop offset="0.335" stop-color="#662D91"/>
</linearGradient>
<linearGradient id="paint3_linear_20_84900" x1="15.6584" y1="56.8812" x2="24.1458" y2="56.8812" gradientUnits="userSpaceOnUse">
<stop stop-color="#0088AC"/>
<stop offset="0.135" stop-color="#0054A6"/>
<stop offset="0.335" stop-color="#662D91"/>
</linearGradient>
<linearGradient id="paint4_linear_20_84900" x1="28.1601" y1="36.2047" x2="45.4418" y2="36.2047" gradientUnits="userSpaceOnUse">
<stop stop-color="#0088AC"/>
<stop offset="0.135" stop-color="#0054A6"/>
<stop offset="0.335" stop-color="#662D91"/>
</linearGradient>
<linearGradient id="paint5_linear_20_84900" x1="6.82156" y1="45.142" x2="124.482" y2="45.142" gradientUnits="userSpaceOnUse">
<stop stop-color="#0088AC"/>
<stop offset="0.135" stop-color="#0054A6"/>
<stop offset="0.335" stop-color="#662D91"/>
</linearGradient>
<linearGradient id="paint6_linear_20_84900" x1="35.4794" y1="32.8367" x2="44.7931" y2="32.8367" gradientUnits="userSpaceOnUse">
<stop stop-color="#0088AC"/>
<stop offset="0.135" stop-color="#0054A6"/>
<stop offset="0.335" stop-color="#662D91"/>
</linearGradient>
<linearGradient id="paint7_linear_20_84900" x1="16.0102" y1="47.8077" x2="25.5965" y2="47.8077" gradientUnits="userSpaceOnUse">
<stop stop-color="#0088AC"/>
<stop offset="0.135" stop-color="#0054A6"/>
<stop offset="0.335" stop-color="#662D91"/>
</linearGradient>
<linearGradient id="paint8_linear_20_84900" x1="19.4237" y1="46.2727" x2="19.5184" y2="46.2727" gradientUnits="userSpaceOnUse">
<stop stop-color="#0088AC"/>
<stop offset="0.135" stop-color="#0054A6"/>
<stop offset="0.335" stop-color="#662D91"/>
</linearGradient>
<linearGradient id="paint9_linear_20_84900" x1="33.5235" y1="22.7833" x2="80.3649" y2="22.7833" gradientUnits="userSpaceOnUse">
<stop stop-color="#0088AC"/>
<stop offset="0.135" stop-color="#0054A6"/>
<stop offset="0.335" stop-color="#662D91"/>
</linearGradient>
<linearGradient id="paint10_linear_20_84900" x1="34.1053" y1="21.7831" x2="34.2115" y2="21.7831" gradientUnits="userSpaceOnUse">
<stop stop-color="#0088AC"/>
<stop offset="0.135" stop-color="#0054A6"/>
<stop offset="0.335" stop-color="#662D91"/>
</linearGradient>
<linearGradient id="paint11_linear_20_84900" x1="38.0127" y1="8.58219" x2="49.7222" y2="8.58219" gradientUnits="userSpaceOnUse">
<stop stop-color="#0088AC"/>
<stop offset="0.135" stop-color="#0054A6"/>
<stop offset="0.335" stop-color="#662D91"/>
</linearGradient>
<linearGradient id="paint12_linear_20_84900" x1="10.1016" y1="30.3049" x2="44.6167" y2="30.3049" gradientUnits="userSpaceOnUse">
<stop stop-color="#0088AC"/>
<stop offset="0.135" stop-color="#0054A6"/>
<stop offset="0.335" stop-color="#662D91"/>
</linearGradient>
<linearGradient id="paint13_linear_20_84900" x1="22.9606" y1="21.2155" x2="23.1643" y2="21.2155" gradientUnits="userSpaceOnUse">
<stop stop-color="#0088AC"/>
<stop offset="0.135" stop-color="#0054A6"/>
<stop offset="0.335" stop-color="#662D91"/>
</linearGradient>
<linearGradient id="paint14_linear_20_84900" x1="17.3719" y1="26.8914" x2="30.4386" y2="26.8914" gradientUnits="userSpaceOnUse">
<stop stop-color="#0088AC"/>
<stop offset="0.135" stop-color="#0054A6"/>
<stop offset="0.335" stop-color="#662D91"/>
</linearGradient>
<linearGradient id="paint15_linear_20_84900" x1="14.5312" y1="41.0092" x2="14.5398" y2="41.0092" gradientUnits="userSpaceOnUse">
<stop stop-color="#0088AC"/>
<stop offset="0.135" stop-color="#0054A6"/>
<stop offset="0.335" stop-color="#662D91"/>
</linearGradient>
<linearGradient id="paint16_linear_20_84900" x1="14.5371" y1="41.081" x2="14.5686" y2="41.081" gradientUnits="userSpaceOnUse">
<stop stop-color="#0088AC"/>
<stop offset="0.135" stop-color="#0054A6"/>
<stop offset="0.335" stop-color="#662D91"/>
</linearGradient>
<linearGradient id="paint17_linear_20_84900" x1="14.541" y1="40.7697" x2="14.5525" y2="40.7697" gradientUnits="userSpaceOnUse">
<stop stop-color="#0088AC"/>
<stop offset="0.135" stop-color="#0054A6"/>
<stop offset="0.335" stop-color="#662D91"/>
</linearGradient>
<linearGradient id="paint18_linear_20_84900" x1="14.5703" y1="40.6169" x2="14.6076" y2="40.6169" gradientUnits="userSpaceOnUse">
<stop stop-color="#0088AC"/>
<stop offset="0.135" stop-color="#0054A6"/>
<stop offset="0.335" stop-color="#662D91"/>
</linearGradient>
<linearGradient id="paint19_linear_20_84900" x1="14.5898" y1="41.1937" x2="14.6128" y2="41.1937" gradientUnits="userSpaceOnUse">
<stop stop-color="#0088AC"/>
<stop offset="0.135" stop-color="#0054A6"/>
<stop offset="0.335" stop-color="#662D91"/>
</linearGradient>
<linearGradient id="paint20_linear_20_84900" x1="14.5888" y1="36.9794" x2="22.6457" y2="36.9794" gradientUnits="userSpaceOnUse">
<stop stop-color="#0088AC"/>
<stop offset="0.135" stop-color="#0054A6"/>
<stop offset="0.335" stop-color="#662D91"/>
</linearGradient>
<linearGradient id="paint21_linear_20_84900" x1="14.5625" y1="41.1529" x2="14.5826" y2="41.1529" gradientUnits="userSpaceOnUse">
<stop stop-color="#0088AC"/>
<stop offset="0.135" stop-color="#0054A6"/>
<stop offset="0.335" stop-color="#662D91"/>
</linearGradient>
<linearGradient id="paint22_linear_20_84900" x1="23.6561" y1="21.7429" x2="24.9788" y2="21.7429" gradientUnits="userSpaceOnUse">
<stop stop-color="#0088AC"/>
<stop offset="0.135" stop-color="#0054A6"/>
<stop offset="0.335" stop-color="#662D91"/>
</linearGradient>
<linearGradient id="paint23_linear_20_84900" x1="13.4863" y1="37.6454" x2="61.653" y2="37.6454" gradientUnits="userSpaceOnUse">
<stop stop-color="#0088AC"/>
<stop offset="0.135" stop-color="#0054A6"/>
<stop offset="0.335" stop-color="#662D91"/>
</linearGradient>
<linearGradient id="paint24_linear_20_84900" x1="29.5718" y1="11.7408" x2="64.4418" y2="11.7408" gradientUnits="userSpaceOnUse">
<stop stop-color="#0088AC"/>
<stop offset="0.135" stop-color="#0054A6"/>
<stop offset="0.335" stop-color="#662D91"/>
</linearGradient>
<clipPath id="clip0_20_84900">
<rect width="50" height="63" fill="white" transform="translate(7)"/>
</clipPath>
</defs>
</svg>
